G75*
%MOIN*%
%OFA0B0*%
%FSLAX24Y24*%
%IPPOS*%
%LPD*%
%AMOC8*
5,1,8,0,0,1.08239X$1,22.5*
%
%ADD10C,0.0000*%
%ADD11C,0.0040*%
%ADD12C,0.0060*%
%ADD13C,0.0030*%
%ADD14C,0.0100*%
%ADD15C,0.0020*%
%ADD16C,0.0039*%
%ADD17C,0.0079*%
%ADD18C,0.0050*%
%ADD19R,0.0315X0.0138*%
%ADD20R,0.0138X0.0315*%
%ADD21R,0.0512X0.0197*%
%ADD22C,0.0160*%
%ADD23R,0.0197X0.0512*%
D10*
X000458Y000150D02*
X000458Y013150D01*
X015708Y013150D01*
X015708Y000150D01*
X000458Y000150D01*
D11*
X000978Y001920D02*
X000978Y002380D01*
X001208Y002380D01*
X001285Y002304D01*
X001285Y002150D01*
X001208Y002073D01*
X000978Y002073D01*
X001438Y001997D02*
X001438Y002304D01*
X001515Y002380D01*
X001668Y002380D01*
X001745Y002304D01*
X001898Y002150D02*
X002205Y002150D01*
X002359Y002227D02*
X002359Y002304D01*
X002436Y002380D01*
X002589Y002380D01*
X002666Y002304D01*
X002819Y002227D02*
X002896Y002227D01*
X002896Y001920D01*
X002819Y001920D02*
X002973Y001920D01*
X003126Y001997D02*
X003126Y002150D01*
X003203Y002227D01*
X003433Y002227D01*
X003433Y002380D02*
X003433Y001920D01*
X003203Y001920D01*
X003126Y001997D01*
X002896Y002380D02*
X002896Y002457D01*
X002589Y002150D02*
X002666Y002073D01*
X002666Y001997D01*
X002589Y001920D01*
X002436Y001920D01*
X002359Y001997D01*
X002436Y002150D02*
X002589Y002150D01*
X002436Y002150D02*
X002359Y002227D01*
X001745Y001997D02*
X001668Y001920D01*
X001515Y001920D01*
X001438Y001997D01*
X001444Y002799D02*
X001429Y002801D01*
X001414Y002805D01*
X001400Y002812D01*
X001388Y002822D01*
X001378Y002834D01*
X001371Y002848D01*
X001367Y002863D01*
X001365Y002878D01*
X001365Y002957D01*
X001363Y002972D01*
X001359Y002987D01*
X001352Y003001D01*
X001342Y003013D01*
X001330Y003023D01*
X001316Y003030D01*
X001301Y003034D01*
X001286Y003036D01*
X001129Y003036D01*
X001114Y003034D01*
X001099Y003030D01*
X001085Y003023D01*
X001073Y003013D01*
X001063Y003001D01*
X001056Y002987D01*
X001052Y002972D01*
X001050Y002957D01*
X001050Y002878D01*
X001048Y002863D01*
X001044Y002848D01*
X001037Y002834D01*
X001027Y002822D01*
X001015Y002812D01*
X001001Y002805D01*
X000986Y002801D01*
X000971Y002799D01*
X000956Y002801D01*
X000941Y002805D01*
X000927Y002812D01*
X000915Y002822D01*
X000905Y002834D01*
X000898Y002848D01*
X000894Y002863D01*
X000892Y002878D01*
X000893Y002878D02*
X000893Y003174D01*
X001444Y002799D02*
X001459Y002801D01*
X001474Y002805D01*
X001488Y002812D01*
X001500Y002822D01*
X001510Y002834D01*
X001517Y002848D01*
X001521Y002863D01*
X001523Y002878D01*
X001523Y003174D01*
X003422Y004262D02*
X003993Y004262D01*
X003993Y004538D02*
X003422Y004538D01*
X004570Y004685D02*
X004570Y004115D01*
X004845Y004115D02*
X004845Y004685D01*
X004944Y005786D02*
X004944Y006514D01*
X004471Y006514D02*
X004471Y005786D01*
X003944Y006286D02*
X003944Y007014D01*
X003471Y007014D02*
X003471Y006286D01*
X001523Y006422D02*
X001523Y006126D01*
X001365Y006343D02*
X001365Y006422D01*
X001367Y006437D01*
X001371Y006452D01*
X001378Y006466D01*
X001388Y006478D01*
X001400Y006488D01*
X001414Y006495D01*
X001429Y006499D01*
X001444Y006501D01*
X001459Y006499D01*
X001474Y006495D01*
X001488Y006488D01*
X001500Y006478D01*
X001510Y006466D01*
X001517Y006452D01*
X001521Y006437D01*
X001523Y006422D01*
X001365Y006343D02*
X001363Y006328D01*
X001359Y006313D01*
X001352Y006299D01*
X001342Y006287D01*
X001330Y006277D01*
X001316Y006270D01*
X001301Y006266D01*
X001286Y006264D01*
X001129Y006264D01*
X001114Y006266D01*
X001099Y006270D01*
X001085Y006277D01*
X001073Y006287D01*
X001063Y006299D01*
X001056Y006313D01*
X001052Y006328D01*
X001050Y006343D01*
X001050Y006422D01*
X001048Y006437D01*
X001044Y006452D01*
X001037Y006466D01*
X001027Y006478D01*
X001015Y006488D01*
X001001Y006495D01*
X000986Y006499D01*
X000971Y006501D01*
X000956Y006499D01*
X000941Y006495D01*
X000927Y006488D01*
X000915Y006478D01*
X000905Y006466D01*
X000898Y006452D01*
X000894Y006437D01*
X000892Y006422D01*
X000893Y006422D02*
X000893Y006126D01*
X002109Y007843D02*
X002416Y007843D01*
X002569Y007920D02*
X002723Y007920D01*
X002646Y007920D02*
X002646Y008380D01*
X002569Y008380D02*
X002723Y008380D01*
X002876Y008380D02*
X003183Y007920D01*
X003183Y008380D01*
X002876Y008380D02*
X002876Y007920D01*
X001955Y007920D02*
X001802Y008073D01*
X001879Y008073D02*
X001648Y008073D01*
X001648Y007920D02*
X001648Y008380D01*
X001879Y008380D01*
X001955Y008304D01*
X001955Y008150D01*
X001879Y008073D01*
X001495Y007920D02*
X001495Y008380D01*
X001188Y008380D02*
X001188Y007920D01*
X001342Y008073D01*
X001495Y007920D01*
X001035Y008150D02*
X000958Y008073D01*
X000728Y008073D01*
X000728Y007920D02*
X000728Y008380D01*
X000958Y008380D01*
X001035Y008304D01*
X001035Y008150D01*
X007667Y007040D02*
X007667Y006866D01*
X007754Y006779D01*
X008101Y006779D01*
X007754Y007126D01*
X008101Y007126D01*
X008188Y007040D01*
X008188Y006866D01*
X008101Y006779D01*
X008101Y006611D02*
X008014Y006611D01*
X007927Y006524D01*
X007927Y006264D01*
X008101Y006264D01*
X008188Y006351D01*
X008188Y006524D01*
X008101Y006611D01*
X007754Y006437D02*
X007927Y006264D01*
X007754Y006437D02*
X007667Y006611D01*
X007667Y007040D02*
X007754Y007126D01*
X008188Y006095D02*
X008188Y005748D01*
X008188Y005922D02*
X007667Y005922D01*
X007841Y005748D01*
X007927Y005580D02*
X007927Y005233D01*
X007667Y005493D01*
X008188Y005493D01*
X008188Y005064D02*
X007667Y005064D01*
X007841Y004890D01*
X007667Y004717D01*
X008188Y004717D01*
X008101Y004548D02*
X007667Y004548D01*
X008101Y004548D02*
X008188Y004462D01*
X008188Y004288D01*
X008101Y004201D01*
X007667Y004201D01*
X007754Y004033D02*
X007667Y003946D01*
X007667Y003686D01*
X008188Y003686D01*
X008188Y003946D01*
X008101Y004033D01*
X007754Y004033D01*
X007841Y003517D02*
X008188Y003517D01*
X007927Y003517D02*
X007927Y003170D01*
X007841Y003170D02*
X007667Y003343D01*
X007841Y003517D01*
X007841Y003170D02*
X008188Y003170D01*
X011172Y003662D02*
X011743Y003662D01*
X011743Y003938D02*
X011172Y003938D01*
X011172Y004312D02*
X011743Y004312D01*
X011743Y004588D02*
X011172Y004588D01*
X011194Y005186D02*
X011194Y005914D01*
X010721Y005914D02*
X010721Y005186D01*
X010721Y006536D02*
X010721Y007264D01*
X011194Y007264D02*
X011194Y006536D01*
X012727Y008920D02*
X012727Y009150D01*
X012804Y009227D01*
X012957Y009227D01*
X013034Y009150D01*
X013034Y008920D01*
X013188Y008920D02*
X012727Y008920D01*
X012727Y009380D02*
X013188Y009380D01*
X013034Y009534D01*
X013188Y009687D01*
X012727Y009687D01*
X012727Y009841D02*
X012727Y010071D01*
X012804Y010148D01*
X012957Y010148D01*
X013034Y010071D01*
X013034Y009841D01*
X013188Y009841D02*
X012727Y009841D01*
X013034Y009994D02*
X013188Y010148D01*
X013264Y010301D02*
X013264Y010608D01*
X013188Y010762D02*
X013188Y010915D01*
X013188Y010838D02*
X012727Y010838D01*
X012727Y010762D02*
X012727Y010915D01*
X012727Y011068D02*
X013188Y011375D01*
X012727Y011375D01*
X012727Y011068D02*
X013188Y011068D01*
X014643Y011876D02*
X014643Y012172D01*
X014721Y012251D02*
X014736Y012249D01*
X014751Y012245D01*
X014765Y012238D01*
X014777Y012228D01*
X014787Y012216D01*
X014794Y012202D01*
X014798Y012187D01*
X014800Y012172D01*
X014800Y012093D01*
X014802Y012078D01*
X014806Y012063D01*
X014813Y012049D01*
X014823Y012037D01*
X014835Y012027D01*
X014849Y012020D01*
X014864Y012016D01*
X014879Y012014D01*
X015036Y012014D01*
X015051Y012016D01*
X015066Y012020D01*
X015080Y012027D01*
X015092Y012037D01*
X015102Y012049D01*
X015109Y012063D01*
X015113Y012078D01*
X015115Y012093D01*
X015115Y012172D01*
X015117Y012187D01*
X015121Y012202D01*
X015128Y012216D01*
X015138Y012228D01*
X015150Y012238D01*
X015164Y012245D01*
X015179Y012249D01*
X015194Y012251D01*
X015209Y012249D01*
X015224Y012245D01*
X015238Y012238D01*
X015250Y012228D01*
X015260Y012216D01*
X015267Y012202D01*
X015271Y012187D01*
X015273Y012172D01*
X015273Y011876D01*
X014721Y012251D02*
X014706Y012249D01*
X014691Y012245D01*
X014677Y012238D01*
X014665Y012228D01*
X014655Y012216D01*
X014648Y012202D01*
X014644Y012187D01*
X014642Y012172D01*
X010822Y011386D02*
X010094Y011386D01*
X010094Y010914D02*
X010822Y010914D01*
X009322Y010914D02*
X008594Y010914D01*
X008594Y011386D02*
X009322Y011386D01*
X014643Y008924D02*
X014643Y008628D01*
X014721Y008549D02*
X014736Y008551D01*
X014751Y008555D01*
X014765Y008562D01*
X014777Y008572D01*
X014787Y008584D01*
X014794Y008598D01*
X014798Y008613D01*
X014800Y008628D01*
X014800Y008707D01*
X014802Y008722D01*
X014806Y008737D01*
X014813Y008751D01*
X014823Y008763D01*
X014835Y008773D01*
X014849Y008780D01*
X014864Y008784D01*
X014879Y008786D01*
X015036Y008786D01*
X015051Y008784D01*
X015066Y008780D01*
X015080Y008773D01*
X015092Y008763D01*
X015102Y008751D01*
X015109Y008737D01*
X015113Y008722D01*
X015115Y008707D01*
X015115Y008628D01*
X015117Y008613D01*
X015121Y008598D01*
X015128Y008584D01*
X015138Y008572D01*
X015150Y008562D01*
X015164Y008555D01*
X015179Y008551D01*
X015194Y008549D01*
X015209Y008551D01*
X015224Y008555D01*
X015238Y008562D01*
X015250Y008572D01*
X015260Y008584D01*
X015267Y008598D01*
X015271Y008613D01*
X015273Y008628D01*
X015273Y008924D01*
X014721Y008549D02*
X014706Y008551D01*
X014691Y008555D01*
X014677Y008562D01*
X014665Y008572D01*
X014655Y008584D01*
X014648Y008598D01*
X014644Y008613D01*
X014642Y008628D01*
X005121Y002380D02*
X005121Y001920D01*
X004814Y002380D01*
X004814Y001920D01*
X004661Y001920D02*
X004507Y001920D01*
X004584Y001920D02*
X004584Y002380D01*
X004507Y002380D02*
X004661Y002380D01*
X003893Y002150D02*
X003893Y002073D01*
X003587Y002073D01*
X003587Y001997D02*
X003587Y002150D01*
X003663Y002227D01*
X003817Y002227D01*
X003893Y002150D01*
X003817Y001920D02*
X003663Y001920D01*
X003587Y001997D01*
D12*
X004738Y001571D02*
X004738Y001037D01*
X004844Y000930D01*
X005058Y000930D01*
X005165Y001037D01*
X005165Y001571D01*
X005382Y001464D02*
X005382Y001357D01*
X005489Y001250D01*
X005703Y001250D01*
X005809Y001144D01*
X005809Y001037D01*
X005703Y000930D01*
X005489Y000930D01*
X005382Y001037D01*
X006027Y000930D02*
X006347Y000930D01*
X006454Y001037D01*
X006454Y001144D01*
X006347Y001250D01*
X006027Y001250D01*
X005809Y001464D02*
X005703Y001571D01*
X005489Y001571D01*
X005382Y001464D01*
X006027Y001571D02*
X006347Y001571D01*
X006454Y001464D01*
X006454Y001357D01*
X006347Y001250D01*
X006027Y000930D02*
X006027Y001571D01*
X007316Y001571D02*
X007529Y001571D01*
X007423Y001571D02*
X007423Y000930D01*
X007529Y000930D02*
X007316Y000930D01*
X007746Y000930D02*
X008066Y000930D01*
X008173Y001037D01*
X008066Y001144D01*
X007852Y001144D01*
X007746Y001250D01*
X007852Y001357D01*
X008173Y001357D01*
X008390Y001250D02*
X008390Y001037D01*
X008497Y000930D01*
X008710Y000930D01*
X008817Y001037D01*
X008817Y001250D01*
X008710Y001357D01*
X008497Y001357D01*
X008390Y001250D01*
X009035Y000930D02*
X009248Y000930D01*
X009141Y000930D02*
X009141Y001571D01*
X009035Y001571D01*
X009571Y001357D02*
X009785Y001357D01*
X009891Y001250D01*
X009891Y000930D01*
X009571Y000930D01*
X009464Y001037D01*
X009571Y001144D01*
X009891Y001144D01*
X010216Y001037D02*
X010322Y000930D01*
X010216Y001037D02*
X010216Y001464D01*
X010322Y001357D02*
X010109Y001357D01*
X010539Y001250D02*
X010539Y001037D01*
X010645Y000930D01*
X010859Y000930D01*
X010966Y001037D01*
X010966Y001250D01*
X010859Y001357D01*
X010645Y001357D01*
X010539Y001250D01*
X011183Y001144D02*
X011397Y001357D01*
X011503Y001357D01*
X011183Y001357D02*
X011183Y000930D01*
X012365Y001357D02*
X012578Y000930D01*
X012792Y001357D01*
X013009Y001357D02*
X013223Y001571D01*
X013223Y000930D01*
X013436Y000930D02*
X013009Y000930D01*
D13*
X012443Y002915D02*
X012443Y003100D01*
X012381Y003162D01*
X012319Y003100D01*
X012319Y002915D01*
X012196Y002915D02*
X012196Y003162D01*
X012258Y003162D01*
X012319Y003100D01*
X012074Y003100D02*
X012074Y002915D01*
X011828Y002915D02*
X011828Y003285D01*
X011889Y003162D02*
X012013Y003162D01*
X012074Y003100D01*
X011889Y003162D02*
X011828Y003100D01*
X011706Y003100D02*
X011706Y002977D01*
X011644Y002915D01*
X011521Y002915D01*
X011459Y002977D01*
X011459Y003100D01*
X011521Y003162D01*
X011644Y003162D01*
X011706Y003100D01*
X011338Y003100D02*
X011091Y003100D01*
X011276Y003285D01*
X011276Y002915D01*
X010970Y002915D02*
X010723Y002915D01*
X010970Y003162D01*
X010970Y003224D01*
X010908Y003285D01*
X010784Y003285D01*
X010723Y003224D01*
X011634Y005415D02*
X011572Y005477D01*
X011572Y005600D01*
X011634Y005662D01*
X011881Y005415D01*
X011943Y005477D01*
X011943Y005600D01*
X011881Y005662D01*
X011634Y005662D01*
X011881Y005783D02*
X011881Y005845D01*
X011943Y005845D01*
X011943Y005783D01*
X011881Y005783D01*
X011943Y005967D02*
X011943Y006214D01*
X011943Y006091D02*
X011572Y006091D01*
X011696Y005967D01*
X011696Y006336D02*
X011881Y006336D01*
X011943Y006398D01*
X011943Y006583D01*
X011696Y006583D01*
X011758Y006704D02*
X011758Y006828D01*
X011943Y006704D02*
X011572Y006704D01*
X011572Y006951D01*
X011634Y005415D02*
X011881Y005415D01*
X004943Y003350D02*
X004943Y003165D01*
X004819Y003165D02*
X004819Y003350D01*
X004881Y003412D01*
X004943Y003350D01*
X004819Y003350D02*
X004758Y003412D01*
X004696Y003412D01*
X004696Y003165D01*
X004574Y003165D02*
X004574Y003350D01*
X004513Y003412D01*
X004389Y003412D01*
X004328Y003350D01*
X004206Y003350D02*
X004144Y003412D01*
X004021Y003412D01*
X003959Y003350D01*
X003959Y003227D01*
X004021Y003165D01*
X004144Y003165D01*
X004206Y003227D01*
X004206Y003350D01*
X004328Y003535D02*
X004328Y003165D01*
X003838Y003350D02*
X003591Y003350D01*
X003776Y003535D01*
X003776Y003165D01*
X003470Y003165D02*
X003223Y003165D01*
X003470Y003412D01*
X003470Y003474D01*
X003408Y003535D01*
X003284Y003535D01*
X003223Y003474D01*
X003093Y005349D02*
X003093Y005596D01*
X002723Y005596D01*
X002723Y005717D02*
X002970Y005717D01*
X002908Y005596D02*
X002908Y005472D01*
X002723Y005717D02*
X002723Y005902D01*
X002784Y005964D01*
X002970Y005964D01*
X002723Y006086D02*
X002723Y006333D01*
X002723Y006455D02*
X002723Y006517D01*
X002784Y006517D01*
X002784Y006455D01*
X002723Y006455D01*
X002784Y006638D02*
X002723Y006700D01*
X002723Y006823D01*
X002784Y006885D01*
X003031Y006638D01*
X002784Y006638D01*
X003031Y006638D02*
X003093Y006700D01*
X003093Y006823D01*
X003031Y006885D01*
X002784Y006885D01*
X002970Y006333D02*
X003093Y006209D01*
X002723Y006209D01*
X008034Y011915D02*
X007973Y011977D01*
X008220Y012224D01*
X008220Y011977D01*
X008158Y011915D01*
X008034Y011915D01*
X007973Y011977D02*
X007973Y012224D01*
X008034Y012285D01*
X008158Y012285D01*
X008220Y012224D01*
X008341Y011977D02*
X008403Y011977D01*
X008403Y011915D01*
X008341Y011915D01*
X008341Y011977D01*
X008525Y011977D02*
X008587Y011915D01*
X008710Y011915D01*
X008772Y011977D01*
X008772Y012038D01*
X008710Y012100D01*
X008649Y012100D01*
X008710Y012100D02*
X008772Y012162D01*
X008772Y012224D01*
X008710Y012285D01*
X008587Y012285D01*
X008525Y012224D01*
X008893Y012224D02*
X008955Y012285D01*
X009079Y012285D01*
X009140Y012224D01*
X009140Y012162D01*
X009079Y012100D01*
X009140Y012038D01*
X009140Y011977D01*
X009079Y011915D01*
X008955Y011915D01*
X008893Y011977D01*
X009017Y012100D02*
X009079Y012100D01*
X009262Y012162D02*
X009262Y011977D01*
X009323Y011915D01*
X009509Y011915D01*
X009509Y012162D01*
X009630Y012100D02*
X009754Y012100D01*
X009630Y011915D02*
X009630Y012285D01*
X009877Y012285D01*
X010223Y012224D02*
X010284Y012285D01*
X010408Y012285D01*
X010470Y012224D01*
X010223Y011977D01*
X010284Y011915D01*
X010408Y011915D01*
X010470Y011977D01*
X010470Y012224D01*
X010591Y011977D02*
X010653Y011977D01*
X010653Y011915D01*
X010591Y011915D01*
X010591Y011977D01*
X010775Y011915D02*
X011022Y011915D01*
X010899Y011915D02*
X010899Y012285D01*
X010775Y012162D01*
X011143Y012162D02*
X011143Y011977D01*
X011205Y011915D01*
X011390Y011915D01*
X011390Y012162D01*
X011512Y012100D02*
X011635Y012100D01*
X011512Y011915D02*
X011512Y012285D01*
X011759Y012285D01*
X010223Y012224D02*
X010223Y011977D01*
D14*
X010458Y007900D02*
X011708Y007900D01*
X011708Y007150D01*
X011708Y005150D02*
X011708Y004900D01*
X011458Y004900D01*
X011708Y004900D02*
X012458Y004900D01*
X012458Y003400D01*
X010708Y003400D02*
X010708Y004650D01*
X005208Y005150D02*
X005208Y003400D01*
X002958Y003400D02*
X002958Y005150D01*
X005208Y005150D01*
X005208Y007400D01*
X002958Y007400D01*
X002958Y007150D01*
D15*
X005625Y007807D02*
X005625Y002493D01*
X010290Y002493D01*
X010290Y007807D01*
X005625Y007807D01*
X007832Y008455D02*
X007832Y010620D01*
X012084Y010620D01*
X012084Y008455D01*
X007832Y008455D01*
D16*
X007930Y008554D02*
X007930Y010522D01*
X011985Y010522D01*
X011985Y008554D01*
X007930Y008554D01*
X006981Y007670D02*
X006481Y007170D01*
X006481Y007670D02*
X006481Y002630D01*
X009434Y002630D01*
X009434Y007670D01*
X006481Y007670D01*
X007930Y010022D02*
X008430Y010522D01*
D17*
X007930Y010522D02*
X007930Y009400D01*
X007930Y010522D02*
X011985Y010522D01*
X011985Y008554D01*
X009296Y007670D02*
X009296Y002630D01*
X006619Y002630D01*
X006619Y007670D01*
X009296Y007670D01*
X006481Y007166D02*
X005723Y007166D01*
X012788Y006611D02*
X013536Y006611D01*
X012788Y006611D02*
X012788Y001689D01*
X013536Y001689D01*
X012788Y001689D02*
X018458Y001689D01*
X015308Y001689D01*
X012788Y001689D02*
X012788Y006611D01*
X018458Y006611D01*
X015308Y006611D01*
X018458Y006611D02*
X018458Y001689D01*
X018458Y006611D01*
D18*
X016040Y008687D02*
X015804Y008924D01*
X015804Y009022D01*
X016040Y008904D01*
X016040Y011896D01*
X015804Y011778D01*
X015804Y011876D01*
X016040Y012113D01*
X015804Y011876D02*
X014643Y011876D01*
X013639Y011876D01*
X013639Y010872D01*
X013698Y010872D01*
X013777Y010794D02*
X013775Y010776D01*
X013769Y010760D01*
X013760Y010745D01*
X013747Y010732D01*
X013732Y010723D01*
X013716Y010717D01*
X013698Y010715D01*
X013639Y010715D01*
X013639Y010479D01*
X013698Y010479D01*
X013777Y010400D02*
X013775Y010382D01*
X013769Y010366D01*
X013760Y010351D01*
X013747Y010338D01*
X013732Y010329D01*
X013716Y010323D01*
X013698Y010321D01*
X013639Y010321D01*
X013639Y010085D01*
X013698Y010085D01*
X013777Y010006D02*
X013775Y009988D01*
X013769Y009972D01*
X013760Y009957D01*
X013747Y009944D01*
X013732Y009935D01*
X013716Y009929D01*
X013698Y009927D01*
X013698Y009928D02*
X013639Y009928D01*
X013639Y008924D01*
X015804Y008924D01*
X015804Y009022D02*
X015804Y011778D01*
X015529Y011876D02*
X015529Y011433D01*
X015529Y011040D02*
X015529Y010597D01*
X015529Y010203D02*
X015529Y009760D01*
X015529Y009367D02*
X015529Y008924D01*
X015332Y008924D01*
X014584Y008924D02*
X014426Y008924D01*
X013639Y009593D02*
X013639Y009809D01*
X013777Y010006D02*
X013775Y010024D01*
X013769Y010040D01*
X013760Y010055D01*
X013747Y010068D01*
X013732Y010077D01*
X013716Y010083D01*
X013698Y010085D01*
X013777Y010400D02*
X013775Y010418D01*
X013769Y010434D01*
X013760Y010449D01*
X013747Y010462D01*
X013732Y010471D01*
X013716Y010477D01*
X013698Y010479D01*
X013777Y010794D02*
X013775Y010812D01*
X013769Y010828D01*
X013760Y010843D01*
X013747Y010856D01*
X013732Y010865D01*
X013716Y010871D01*
X013698Y010873D01*
X013639Y010991D02*
X013639Y011207D01*
X014426Y011876D02*
X014584Y011876D01*
X015332Y011876D02*
X015529Y011876D01*
X002527Y006126D02*
X002527Y005122D01*
X002468Y005122D01*
X002389Y005044D02*
X002391Y005026D01*
X002397Y005010D01*
X002406Y004995D01*
X002419Y004982D01*
X002434Y004973D01*
X002450Y004967D01*
X002468Y004965D01*
X002527Y004965D01*
X002527Y004729D01*
X002468Y004729D01*
X002389Y004650D02*
X002391Y004632D01*
X002397Y004616D01*
X002406Y004601D01*
X002419Y004588D01*
X002434Y004579D01*
X002450Y004573D01*
X002468Y004571D01*
X002527Y004571D01*
X002527Y004335D01*
X002468Y004335D01*
X002389Y004256D02*
X002391Y004238D01*
X002397Y004222D01*
X002406Y004207D01*
X002419Y004194D01*
X002434Y004185D01*
X002450Y004179D01*
X002468Y004177D01*
X002468Y004178D02*
X002527Y004178D01*
X002527Y003174D01*
X001523Y003174D01*
X000361Y003174D01*
X000125Y002937D01*
X000125Y003154D02*
X000361Y003272D01*
X000361Y003174D01*
X000361Y003272D02*
X000361Y006028D01*
X000125Y006146D01*
X000125Y003154D01*
X000637Y003174D02*
X000637Y003617D01*
X000637Y004010D02*
X000637Y004453D01*
X000637Y004847D02*
X000637Y005290D01*
X000637Y005683D02*
X000637Y006126D01*
X000834Y006126D01*
X000361Y006126D02*
X000361Y006028D01*
X000361Y006126D02*
X000125Y006363D01*
X000361Y006126D02*
X002527Y006126D01*
X001739Y006126D02*
X001582Y006126D01*
X002527Y005457D02*
X002527Y005241D01*
X002468Y005123D02*
X002450Y005121D01*
X002434Y005115D01*
X002419Y005106D01*
X002406Y005093D01*
X002397Y005078D01*
X002391Y005062D01*
X002389Y005044D01*
X002468Y004729D02*
X002450Y004727D01*
X002434Y004721D01*
X002419Y004712D01*
X002406Y004699D01*
X002397Y004684D01*
X002391Y004668D01*
X002389Y004650D01*
X002468Y004335D02*
X002450Y004333D01*
X002434Y004327D01*
X002419Y004318D01*
X002406Y004305D01*
X002397Y004290D01*
X002391Y004274D01*
X002389Y004256D01*
X002527Y004059D02*
X002527Y003843D01*
X001739Y003174D02*
X001582Y003174D01*
X000834Y003174D02*
X000637Y003174D01*
D19*
X004708Y004154D03*
X004708Y004646D03*
D20*
X003954Y004400D03*
X003462Y004400D03*
X011212Y004450D03*
X011704Y004450D03*
X011704Y003800D03*
X011212Y003800D03*
D21*
X010958Y005255D03*
X010958Y005845D03*
X010958Y006605D03*
X010958Y007195D03*
X004708Y006445D03*
X004708Y005855D03*
X003708Y006355D03*
X003708Y006945D03*
D22*
X006895Y008878D02*
X000202Y008878D01*
X000202Y012422D01*
X006895Y012422D01*
X006895Y008878D01*
D23*
X008662Y011150D03*
X009253Y011150D03*
X010162Y011150D03*
X010753Y011150D03*
M02*
