G75*
%MOIN*%
%OFA0B0*%
%FSLAX24Y24*%
%IPPOS*%
%LPD*%
%AMOC8*
5,1,8,0,0,1.08239X$1,22.5*
%
%ADD10C,0.0000*%
%ADD11R,0.0758X0.0256*%
%ADD12R,0.0787X0.0827*%
%ADD13R,0.0748X0.0630*%
%ADD14R,0.0531X0.0157*%
%ADD15R,0.0425X0.0413*%
%ADD16R,0.0413X0.0425*%
%ADD17R,0.0630X0.0512*%
%ADD18R,0.0512X0.0630*%
D10*
X000458Y000150D02*
X000458Y013150D01*
X015708Y013150D01*
X015708Y000150D01*
X000458Y000150D01*
D11*
X006103Y003400D03*
X006103Y003900D03*
X006103Y004400D03*
X006103Y004900D03*
X006103Y005400D03*
X006103Y005900D03*
X006103Y006400D03*
X006103Y006900D03*
X009813Y006900D03*
X009813Y006400D03*
X009813Y005900D03*
X009813Y005400D03*
X009813Y004900D03*
X009813Y004400D03*
X009813Y003900D03*
X009813Y003400D03*
D12*
X002133Y003430D03*
X002133Y005870D03*
X014032Y009180D03*
X014032Y011620D03*
D13*
X014958Y012014D03*
X014958Y008786D03*
X001208Y006264D03*
X001208Y003036D03*
D14*
X002261Y004138D03*
X002261Y004394D03*
X002261Y004650D03*
X002261Y004906D03*
X002261Y005162D03*
X013905Y009888D03*
X013905Y010144D03*
X013905Y010400D03*
X013905Y010656D03*
X013905Y010912D03*
D15*
X004708Y004744D03*
X004708Y004056D03*
D16*
X004052Y004400D03*
X003363Y004400D03*
X011113Y004450D03*
X011802Y004450D03*
X011802Y003800D03*
X011113Y003800D03*
D17*
X010958Y005156D03*
X010958Y005944D03*
X010958Y006506D03*
X010958Y007294D03*
X004708Y006544D03*
X003708Y006256D03*
X003708Y007044D03*
X004708Y005756D03*
D18*
X008564Y011150D03*
X009351Y011150D03*
X010064Y011150D03*
X010851Y011150D03*
M02*
