G75*
%MOIN*%
%OFA0B0*%
%FSLAX24Y24*%
%IPPOS*%
%LPD*%
%AMOC8*
5,1,8,0,0,1.08239X$1,22.5*
%
%ADD10C,0.0000*%
%ADD11R,0.0758X0.0256*%
%ADD12R,0.0787X0.0827*%
%ADD13R,0.0748X0.0630*%
%ADD14R,0.0531X0.0157*%
%ADD15R,0.0425X0.0413*%
%ADD16R,0.0413X0.0425*%
%ADD17R,0.0630X0.0512*%
%ADD18C,0.0571*%
%ADD19C,0.1378*%
%ADD20R,0.0797X0.0797*%
%ADD21C,0.0797*%
%ADD22C,0.1581*%
%ADD23OC8,0.1575*%
%ADD24R,0.0512X0.0630*%
%ADD25C,0.0160*%
%ADD26C,0.0100*%
%ADD27C,0.0240*%
%ADD28C,0.0258*%
%ADD29C,0.0060*%
D10*
X000458Y000150D02*
X000458Y013150D01*
X015708Y013150D01*
X015708Y000150D01*
X000458Y000150D01*
D11*
X006103Y003400D03*
X006103Y003900D03*
X006103Y004400D03*
X006103Y004900D03*
X006103Y005400D03*
X006103Y005900D03*
X006103Y006400D03*
X006103Y006900D03*
X009813Y006900D03*
X009813Y006400D03*
X009813Y005900D03*
X009813Y005400D03*
X009813Y004900D03*
X009813Y004400D03*
X009813Y003900D03*
X009813Y003400D03*
D12*
X002133Y003430D03*
X002133Y005870D03*
X014032Y009180D03*
X014032Y011620D03*
D13*
X014958Y012014D03*
X014958Y008786D03*
X001208Y006264D03*
X001208Y003036D03*
D14*
X002261Y004138D03*
X002261Y004394D03*
X002261Y004650D03*
X002261Y004906D03*
X002261Y005162D03*
X013905Y009888D03*
X013905Y010144D03*
X013905Y010400D03*
X013905Y010656D03*
X013905Y010912D03*
D15*
X004708Y004744D03*
X004708Y004056D03*
D16*
X004052Y004400D03*
X003363Y004400D03*
X011113Y004450D03*
X011802Y004450D03*
X011802Y003800D03*
X011113Y003800D03*
D17*
X010958Y005156D03*
X010958Y005944D03*
X010958Y006506D03*
X010958Y007294D03*
X004708Y006544D03*
X003708Y006256D03*
X003708Y007044D03*
X004708Y005756D03*
D18*
X013340Y005528D03*
X013340Y004544D03*
X013340Y003756D03*
X013340Y002772D03*
D19*
X014403Y001563D03*
X014403Y006737D03*
D20*
X008958Y009400D03*
D21*
X009958Y009400D03*
X010958Y009400D03*
D22*
X005714Y009859D02*
X005714Y011441D01*
X002958Y011441D02*
X002958Y009859D01*
D23*
X004532Y008681D03*
D24*
X008564Y011150D03*
X009351Y011150D03*
X010064Y011150D03*
X010851Y011150D03*
D25*
X010851Y009506D01*
X010958Y009400D01*
X010958Y007294D01*
X010851Y007294D01*
X010708Y007150D01*
X010063Y007150D01*
X009813Y006900D01*
X009813Y006400D02*
X010708Y006400D01*
X010814Y006506D01*
X010958Y006506D01*
X010458Y005900D02*
X010458Y005400D01*
X010458Y005150D01*
X010464Y005156D01*
X010958Y005156D01*
X010958Y005150D01*
X010458Y005150D02*
X010458Y004900D01*
X009813Y004900D01*
X009813Y004400D02*
X011063Y004400D01*
X011113Y004450D01*
X010958Y003900D02*
X011058Y003800D01*
X011113Y003800D01*
X010958Y003900D02*
X009813Y003900D01*
X009813Y005400D02*
X010458Y005400D01*
X010458Y005900D02*
X009813Y005900D01*
X006103Y005900D02*
X005208Y005900D01*
X004708Y005900D01*
X004708Y005756D01*
X005208Y005900D02*
X005208Y005400D01*
X005208Y004900D01*
X006103Y004900D01*
X006103Y005400D02*
X005208Y005400D01*
X004602Y004850D02*
X004708Y004744D01*
X004602Y004850D02*
X003158Y004850D01*
X003129Y004848D01*
X003101Y004843D01*
X003073Y004835D01*
X003046Y004824D01*
X003021Y004809D01*
X002998Y004792D01*
X002977Y004772D01*
X002958Y004750D01*
X002758Y004650D02*
X002261Y004650D01*
X002261Y004394D02*
X003357Y004394D01*
X003363Y004400D01*
X002934Y003900D02*
X002696Y004138D01*
X002261Y004138D01*
X002934Y003900D02*
X002958Y003900D01*
X003708Y003400D02*
X006103Y003400D01*
X006103Y003900D02*
X004863Y003900D01*
X004708Y004056D01*
X002958Y004750D02*
X002939Y004728D01*
X002918Y004708D01*
X002895Y004691D01*
X002870Y004676D01*
X002843Y004665D01*
X002815Y004657D01*
X002787Y004652D01*
X002758Y004650D01*
X002719Y005162D02*
X002261Y005162D01*
X002719Y005162D02*
X002958Y005400D01*
X002958Y006150D01*
X003208Y006400D01*
X003458Y006400D01*
X003601Y006256D01*
X003708Y006256D01*
X003708Y006400D01*
X004708Y006400D01*
X004708Y006544D01*
X004708Y006400D02*
X006103Y006400D01*
X006103Y006900D02*
X005458Y006900D01*
X005208Y007150D01*
X003814Y007150D01*
X003708Y007044D01*
X003601Y007150D01*
X002958Y007150D01*
X003708Y006256D02*
X003708Y005650D01*
X004458Y008650D02*
X009958Y008650D01*
X009958Y009400D01*
X010064Y009506D01*
X010064Y011150D01*
X009351Y011150D01*
X008564Y011150D02*
X008458Y011044D01*
X008458Y010400D01*
X005964Y010400D01*
X005714Y010650D01*
X004532Y009075D02*
X004458Y009000D01*
X004458Y008650D01*
X004532Y008681D02*
X004532Y009075D01*
X002958Y010650D01*
X008458Y010400D02*
X008458Y010150D01*
X008958Y009650D01*
X008958Y009400D01*
X008958Y009150D01*
X010958Y011150D02*
X011208Y010900D01*
X013893Y010900D01*
X013905Y010912D01*
X010958Y011150D02*
X010851Y011150D01*
D26*
X011217Y011159D02*
X011217Y011511D01*
X011153Y011575D01*
X010550Y011575D01*
X010485Y011511D01*
X010485Y010789D01*
X010550Y010725D01*
X010661Y010725D01*
X010661Y009823D01*
X010526Y009688D01*
X010479Y009572D01*
X010466Y009611D01*
X010427Y009688D01*
X010376Y009757D01*
X010315Y009818D01*
X010245Y009869D01*
X010168Y009908D01*
X010086Y009935D01*
X010008Y009948D01*
X010008Y009450D01*
X009908Y009450D01*
X009908Y009948D01*
X009829Y009935D01*
X009747Y009908D01*
X009670Y009869D01*
X009600Y009818D01*
X009539Y009757D01*
X009488Y009688D01*
X009466Y009644D01*
X009466Y009844D01*
X009402Y009909D01*
X008968Y009909D01*
X008648Y010229D01*
X008648Y010725D01*
X008865Y010725D01*
X008930Y010789D01*
X008930Y011511D01*
X008865Y011575D01*
X008263Y011575D01*
X008198Y011511D01*
X008198Y010789D01*
X008263Y010725D01*
X008268Y010725D01*
X008268Y010590D01*
X006614Y010590D01*
X006614Y011620D01*
X006477Y011951D01*
X006224Y012204D01*
X005893Y012341D01*
X005534Y012341D01*
X005203Y012204D01*
X004950Y011951D01*
X004813Y011620D01*
X004813Y009680D01*
X004838Y009619D01*
X004582Y009619D01*
X004582Y008732D01*
X004482Y008732D01*
X004482Y009619D01*
X004144Y009619D01*
X003595Y009070D01*
X003595Y008731D01*
X004482Y008731D01*
X004482Y008631D01*
X003595Y008631D01*
X003595Y008293D01*
X003738Y008150D01*
X000708Y008150D01*
X000708Y012900D01*
X015458Y012900D01*
X015458Y011926D01*
X015442Y011926D01*
X015442Y012375D01*
X015377Y012439D01*
X014538Y012439D01*
X014474Y012375D01*
X014474Y012142D01*
X014472Y012144D01*
X013593Y012144D01*
X013529Y012079D01*
X013529Y011162D01*
X013591Y011099D01*
X013583Y011090D01*
X011286Y011090D01*
X011217Y011159D01*
X011217Y011182D02*
X013529Y011182D01*
X013529Y011281D02*
X011217Y011281D01*
X011217Y011379D02*
X013529Y011379D01*
X013529Y011478D02*
X011217Y011478D01*
X010485Y011478D02*
X010470Y011478D01*
X010470Y011485D02*
X010460Y011523D01*
X010440Y011557D01*
X010412Y011585D01*
X010378Y011605D01*
X010340Y011615D01*
X010114Y011615D01*
X010114Y011200D01*
X010470Y011200D01*
X010470Y011485D01*
X010421Y011576D02*
X013529Y011576D01*
X013529Y011675D02*
X006591Y011675D01*
X006614Y011576D02*
X008994Y011576D01*
X009003Y011585D02*
X008975Y011557D01*
X008956Y011523D01*
X008945Y011485D01*
X008945Y011200D01*
X009301Y011200D01*
X009301Y011100D01*
X008945Y011100D01*
X008945Y010815D01*
X008956Y010777D01*
X008975Y010743D01*
X009003Y010715D01*
X009038Y010695D01*
X009076Y010685D01*
X009301Y010685D01*
X009301Y011100D01*
X009401Y011100D01*
X009401Y010685D01*
X009627Y010685D01*
X009665Y010695D01*
X009699Y010715D01*
X009708Y010723D01*
X009716Y010715D01*
X009750Y010695D01*
X009788Y010685D01*
X010014Y010685D01*
X010014Y011100D01*
X010114Y011100D01*
X010114Y011200D01*
X010014Y011200D01*
X010014Y011615D01*
X009788Y011615D01*
X009750Y011605D01*
X009716Y011585D01*
X009708Y011577D01*
X009699Y011585D01*
X009665Y011605D01*
X009627Y011615D01*
X009401Y011615D01*
X009401Y011200D01*
X009301Y011200D01*
X009301Y011615D01*
X009076Y011615D01*
X009038Y011605D01*
X009003Y011585D01*
X008945Y011478D02*
X008930Y011478D01*
X008930Y011379D02*
X008945Y011379D01*
X008945Y011281D02*
X008930Y011281D01*
X008930Y011182D02*
X009301Y011182D01*
X009301Y011084D02*
X009401Y011084D01*
X009401Y011100D02*
X009401Y011200D01*
X010014Y011200D01*
X010014Y011100D01*
X009658Y011100D01*
X009401Y011100D01*
X009401Y011182D02*
X010014Y011182D01*
X010014Y011084D02*
X010114Y011084D01*
X010114Y011100D02*
X010114Y010685D01*
X010340Y010685D01*
X010378Y010695D01*
X010412Y010715D01*
X010440Y010743D01*
X010460Y010777D01*
X010470Y010815D01*
X010470Y011100D01*
X010114Y011100D01*
X010114Y011182D02*
X010485Y011182D01*
X010485Y011084D02*
X010470Y011084D01*
X010470Y010985D02*
X010485Y010985D01*
X010485Y010887D02*
X010470Y010887D01*
X010463Y010788D02*
X010487Y010788D01*
X010356Y010690D02*
X010661Y010690D01*
X010661Y010591D02*
X008648Y010591D01*
X008648Y010493D02*
X010661Y010493D01*
X010661Y010394D02*
X008648Y010394D01*
X008648Y010296D02*
X010661Y010296D01*
X010661Y010197D02*
X008679Y010197D01*
X008778Y010099D02*
X010661Y010099D01*
X010661Y010000D02*
X008876Y010000D01*
X008472Y009867D02*
X008449Y009844D01*
X008449Y008956D01*
X008513Y008891D01*
X009402Y008891D01*
X009466Y008956D01*
X009466Y009156D01*
X009488Y009112D01*
X009539Y009043D01*
X009600Y008982D01*
X009670Y008931D01*
X009747Y008892D01*
X009829Y008865D01*
X009908Y008852D01*
X009908Y009350D01*
X010008Y009350D01*
X010008Y008852D01*
X010086Y008865D01*
X010168Y008892D01*
X010245Y008931D01*
X010315Y008982D01*
X010376Y009043D01*
X010427Y009112D01*
X010466Y009189D01*
X010479Y009228D01*
X010526Y009112D01*
X010670Y008969D01*
X010768Y008928D01*
X010768Y007660D01*
X010597Y007660D01*
X010533Y007595D01*
X010533Y007340D01*
X009984Y007340D01*
X009873Y007229D01*
X009782Y007138D01*
X009388Y007138D01*
X009324Y007074D01*
X009324Y006726D01*
X009381Y006669D01*
X009376Y006668D01*
X009342Y006648D01*
X009314Y006620D01*
X009294Y006586D01*
X009284Y006548D01*
X009284Y006414D01*
X009799Y006414D01*
X009799Y006386D01*
X009284Y006386D01*
X009284Y006252D01*
X009294Y006214D01*
X009314Y006180D01*
X009342Y006152D01*
X009376Y006132D01*
X009381Y006131D01*
X009324Y006074D01*
X009324Y005726D01*
X009388Y005662D01*
X010237Y005662D01*
X010268Y005692D01*
X010268Y005608D01*
X010237Y005638D01*
X009388Y005638D01*
X009324Y005574D01*
X009324Y005226D01*
X009388Y005162D01*
X010237Y005162D01*
X010268Y005192D01*
X010268Y005108D01*
X010237Y005138D01*
X009388Y005138D01*
X009324Y005074D01*
X009324Y004726D01*
X009388Y004662D01*
X010237Y004662D01*
X010285Y004710D01*
X010536Y004710D01*
X010617Y004790D01*
X011298Y004790D01*
X011298Y004773D01*
X010861Y004773D01*
X010796Y004708D01*
X010796Y004590D01*
X010285Y004590D01*
X010237Y004638D01*
X009388Y004638D01*
X009324Y004574D01*
X009324Y004226D01*
X009388Y004162D01*
X010237Y004162D01*
X010285Y004210D01*
X010796Y004210D01*
X010796Y004192D01*
X010861Y004127D01*
X011298Y004127D01*
X011298Y004123D01*
X010861Y004123D01*
X010828Y004090D01*
X010285Y004090D01*
X010828Y004090D01*
X010800Y004189D02*
X010264Y004189D01*
X010237Y004138D02*
X009388Y004138D01*
X009324Y004074D01*
X009324Y003726D01*
X009381Y003669D01*
X009376Y003668D01*
X009342Y003648D01*
X009314Y003620D01*
X009294Y003586D01*
X009284Y003548D01*
X009284Y003414D01*
X009799Y003414D01*
X009799Y003386D01*
X009827Y003386D01*
X009827Y003414D01*
X010342Y003414D01*
X010342Y003548D01*
X010332Y003586D01*
X010312Y003620D01*
X010284Y003648D01*
X010250Y003668D01*
X010244Y003669D01*
X010285Y003710D01*
X010796Y003710D01*
X010796Y003542D01*
X010861Y003477D01*
X011332Y003477D01*
X011380Y003430D01*
X012160Y002650D01*
X012962Y002650D01*
X013004Y002548D01*
X013116Y002437D01*
X013261Y002377D01*
X013418Y002377D01*
X013564Y002437D01*
X013675Y002548D01*
X013735Y002693D01*
X013735Y002851D01*
X013675Y002996D01*
X013564Y003107D01*
X013418Y003167D01*
X013261Y003167D01*
X013116Y003107D01*
X013004Y002996D01*
X012977Y002930D01*
X012276Y002930D01*
X011728Y003477D01*
X012054Y003477D01*
X012119Y003542D01*
X012119Y003640D01*
X012174Y003640D01*
X012195Y003661D01*
X012307Y003661D01*
X012447Y003801D01*
X012447Y003999D01*
X012307Y004139D01*
X012109Y004139D01*
X012073Y004104D01*
X012054Y004123D01*
X011578Y004123D01*
X011578Y004127D01*
X012054Y004127D01*
X012119Y004192D01*
X012119Y004290D01*
X012580Y004290D01*
X012971Y003899D01*
X012944Y003835D01*
X012944Y003678D01*
X013004Y003532D01*
X013116Y003421D01*
X013261Y003361D01*
X013418Y003361D01*
X013564Y003421D01*
X013675Y003532D01*
X013735Y003678D01*
X013735Y003835D01*
X013675Y003980D01*
X013564Y004092D01*
X013422Y004150D01*
X013564Y004208D01*
X013675Y004320D01*
X013735Y004465D01*
X013735Y004622D01*
X013675Y004768D01*
X013564Y004879D01*
X013418Y004939D01*
X013261Y004939D01*
X013116Y004879D01*
X013004Y004768D01*
X012944Y004622D01*
X012944Y004465D01*
X013004Y004320D01*
X013116Y004208D01*
X013257Y004150D01*
X013197Y004125D01*
X012712Y004610D01*
X012119Y004610D01*
X012119Y004708D01*
X012054Y004773D01*
X011578Y004773D01*
X011578Y006808D01*
X011383Y007003D01*
X011383Y007595D01*
X011318Y007660D01*
X011148Y007660D01*
X011148Y008928D01*
X011246Y008969D01*
X011389Y009112D01*
X011466Y009299D01*
X011466Y009501D01*
X011389Y009688D01*
X011246Y009831D01*
X011059Y009909D01*
X011041Y009909D01*
X011041Y010725D01*
X011114Y010725D01*
X011129Y010710D01*
X013529Y010710D01*
X013529Y010532D01*
X013532Y010528D01*
X013529Y010524D01*
X013529Y010276D01*
X013532Y010272D01*
X013529Y010268D01*
X013529Y010069D01*
X013519Y010059D01*
X013499Y010025D01*
X013489Y009987D01*
X013489Y009888D01*
X013489Y009790D01*
X013499Y009752D01*
X013519Y009717D01*
X013547Y009689D01*
X013568Y009677D01*
X013529Y009638D01*
X013529Y008721D01*
X013593Y008656D01*
X014472Y008656D01*
X014474Y008658D01*
X014474Y008425D01*
X014538Y008361D01*
X015377Y008361D01*
X015442Y008425D01*
X015442Y008874D01*
X015458Y008874D01*
X015458Y000400D01*
X008208Y000400D01*
X008208Y008150D01*
X005327Y008150D01*
X005470Y008293D01*
X005470Y008631D01*
X004582Y008631D01*
X004582Y008731D01*
X005470Y008731D01*
X005470Y008986D01*
X005534Y008959D01*
X005893Y008959D01*
X006224Y009096D01*
X006477Y009349D01*
X006614Y009680D01*
X006614Y010210D01*
X008268Y010210D01*
X008268Y010071D01*
X008472Y009867D01*
X008437Y009902D02*
X006614Y009902D01*
X006614Y010000D02*
X008339Y010000D01*
X008268Y010099D02*
X006614Y010099D01*
X006614Y010197D02*
X008268Y010197D01*
X008268Y010591D02*
X006614Y010591D01*
X006614Y010690D02*
X008268Y010690D01*
X008200Y010788D02*
X006614Y010788D01*
X006614Y010887D02*
X008198Y010887D01*
X008198Y010985D02*
X006614Y010985D01*
X006614Y011084D02*
X008198Y011084D01*
X008198Y011182D02*
X006614Y011182D01*
X006614Y011281D02*
X008198Y011281D01*
X008198Y011379D02*
X006614Y011379D01*
X006614Y011478D02*
X008198Y011478D01*
X008930Y011084D02*
X008945Y011084D01*
X008945Y010985D02*
X008930Y010985D01*
X008930Y010887D02*
X008945Y010887D01*
X008953Y010788D02*
X008928Y010788D01*
X009059Y010690D02*
X008648Y010690D01*
X009301Y010690D02*
X009401Y010690D01*
X009401Y010788D02*
X009301Y010788D01*
X009301Y010887D02*
X009401Y010887D01*
X009401Y010985D02*
X009301Y010985D01*
X009301Y011281D02*
X009401Y011281D01*
X009401Y011379D02*
X009301Y011379D01*
X009301Y011478D02*
X009401Y011478D01*
X009401Y011576D02*
X009301Y011576D01*
X010014Y011576D02*
X010114Y011576D01*
X010114Y011478D02*
X010014Y011478D01*
X010014Y011379D02*
X010114Y011379D01*
X010114Y011281D02*
X010014Y011281D01*
X010014Y010985D02*
X010114Y010985D01*
X010114Y010887D02*
X010014Y010887D01*
X010014Y010788D02*
X010114Y010788D01*
X010114Y010690D02*
X010014Y010690D01*
X009772Y010690D02*
X009644Y010690D01*
X010470Y011281D02*
X010485Y011281D01*
X010485Y011379D02*
X010470Y011379D01*
X011041Y010690D02*
X013529Y010690D01*
X013529Y010591D02*
X011041Y010591D01*
X011041Y010493D02*
X013529Y010493D01*
X013529Y010394D02*
X011041Y010394D01*
X011041Y010296D02*
X013529Y010296D01*
X013529Y010197D02*
X011041Y010197D01*
X011041Y010099D02*
X013529Y010099D01*
X013492Y010000D02*
X011041Y010000D01*
X011076Y009902D02*
X013489Y009902D01*
X013489Y009888D02*
X013905Y009888D01*
X013489Y009888D01*
X013489Y009803D02*
X011274Y009803D01*
X011372Y009705D02*
X013532Y009705D01*
X013529Y009606D02*
X011423Y009606D01*
X011464Y009508D02*
X013529Y009508D01*
X013529Y009409D02*
X011466Y009409D01*
X011466Y009311D02*
X013529Y009311D01*
X013529Y009212D02*
X011430Y009212D01*
X011390Y009114D02*
X013529Y009114D01*
X013529Y009015D02*
X011292Y009015D01*
X011148Y008917D02*
X013529Y008917D01*
X013529Y008818D02*
X011148Y008818D01*
X011148Y008720D02*
X013530Y008720D01*
X014474Y008621D02*
X011148Y008621D01*
X011148Y008523D02*
X014474Y008523D01*
X014475Y008424D02*
X011148Y008424D01*
X011148Y008326D02*
X015458Y008326D01*
X015458Y008424D02*
X015440Y008424D01*
X015442Y008523D02*
X015458Y008523D01*
X015458Y008621D02*
X015442Y008621D01*
X015442Y008720D02*
X015458Y008720D01*
X015458Y008818D02*
X015442Y008818D01*
X015458Y008227D02*
X011148Y008227D01*
X011148Y008129D02*
X015458Y008129D01*
X015458Y008030D02*
X011148Y008030D01*
X011148Y007932D02*
X015458Y007932D01*
X015458Y007833D02*
X011148Y007833D01*
X011148Y007735D02*
X015458Y007735D01*
X015458Y007636D02*
X011342Y007636D01*
X011383Y007538D02*
X015458Y007538D01*
X015458Y007439D02*
X014795Y007439D01*
X014855Y007414D02*
X014561Y007536D01*
X014244Y007536D01*
X013950Y007414D01*
X013725Y007189D01*
X013604Y006896D01*
X013604Y006578D01*
X013725Y006284D01*
X013950Y006059D01*
X014244Y005938D01*
X014561Y005938D01*
X014855Y006059D01*
X015080Y006284D01*
X015202Y006578D01*
X015202Y006896D01*
X015080Y007189D01*
X014855Y007414D01*
X014929Y007341D02*
X015458Y007341D01*
X015458Y007242D02*
X015027Y007242D01*
X015099Y007144D02*
X015458Y007144D01*
X015458Y007045D02*
X015140Y007045D01*
X015180Y006947D02*
X015458Y006947D01*
X015458Y006848D02*
X015202Y006848D01*
X015202Y006750D02*
X015458Y006750D01*
X015458Y006651D02*
X015202Y006651D01*
X015191Y006553D02*
X015458Y006553D01*
X015458Y006454D02*
X015150Y006454D01*
X015110Y006356D02*
X015458Y006356D01*
X015458Y006257D02*
X015053Y006257D01*
X014954Y006159D02*
X015458Y006159D01*
X015458Y006060D02*
X014856Y006060D01*
X014619Y005962D02*
X015458Y005962D01*
X015458Y005863D02*
X013619Y005863D01*
X013623Y005860D02*
X013568Y005900D01*
X013507Y005931D01*
X013442Y005953D01*
X013380Y005962D01*
X013380Y005569D01*
X013299Y005569D01*
X013299Y005962D01*
X013238Y005953D01*
X013172Y005931D01*
X013111Y005900D01*
X013056Y005860D01*
X013007Y005812D01*
X012967Y005756D01*
X012936Y005695D01*
X012915Y005630D01*
X012905Y005569D01*
X013299Y005569D01*
X013299Y005487D01*
X013380Y005487D01*
X013380Y005094D01*
X013442Y005103D01*
X013507Y005124D01*
X013568Y005156D01*
X013623Y005196D01*
X013672Y005244D01*
X013712Y005300D01*
X013743Y005361D01*
X013764Y005426D01*
X013774Y005487D01*
X013380Y005487D01*
X013380Y005569D01*
X013774Y005569D01*
X013764Y005630D01*
X013743Y005695D01*
X013712Y005756D01*
X013672Y005812D01*
X013623Y005860D01*
X013706Y005765D02*
X015458Y005765D01*
X015458Y005666D02*
X013753Y005666D01*
X013771Y005469D02*
X015458Y005469D01*
X015458Y005371D02*
X013746Y005371D01*
X013692Y005272D02*
X015458Y005272D01*
X015458Y005174D02*
X013593Y005174D01*
X013380Y005174D02*
X013299Y005174D01*
X013299Y005094D02*
X013299Y005487D01*
X012905Y005487D01*
X012915Y005426D01*
X012936Y005361D01*
X012967Y005300D01*
X013007Y005244D01*
X013056Y005196D01*
X013111Y005156D01*
X013172Y005124D01*
X013238Y005103D01*
X013299Y005094D01*
X013299Y005272D02*
X013380Y005272D01*
X013380Y005371D02*
X013299Y005371D01*
X013299Y005469D02*
X013380Y005469D01*
X013380Y005568D02*
X015458Y005568D01*
X015458Y005075D02*
X011578Y005075D01*
X011578Y004977D02*
X015458Y004977D01*
X015458Y004878D02*
X013564Y004878D01*
X013663Y004780D02*
X015458Y004780D01*
X015458Y004681D02*
X013711Y004681D01*
X013735Y004583D02*
X015458Y004583D01*
X015458Y004484D02*
X013735Y004484D01*
X013702Y004386D02*
X015458Y004386D01*
X015458Y004287D02*
X013642Y004287D01*
X013515Y004189D02*
X015458Y004189D01*
X015458Y004090D02*
X013565Y004090D01*
X013664Y003992D02*
X015458Y003992D01*
X015458Y003893D02*
X013711Y003893D01*
X013735Y003795D02*
X015458Y003795D01*
X015458Y003696D02*
X013735Y003696D01*
X013702Y003598D02*
X015458Y003598D01*
X015458Y003499D02*
X013642Y003499D01*
X013514Y003401D02*
X015458Y003401D01*
X015458Y003302D02*
X011904Y003302D01*
X012002Y003204D02*
X015458Y003204D01*
X015458Y003105D02*
X013566Y003105D01*
X013664Y003007D02*
X015458Y003007D01*
X015458Y002908D02*
X013711Y002908D01*
X013735Y002810D02*
X015458Y002810D01*
X015458Y002711D02*
X013735Y002711D01*
X013701Y002613D02*
X015458Y002613D01*
X015458Y002514D02*
X013641Y002514D01*
X013512Y002416D02*
X015458Y002416D01*
X015458Y002317D02*
X014671Y002317D01*
X014561Y002362D02*
X014855Y002241D01*
X015080Y002016D01*
X015202Y001722D01*
X015202Y001404D01*
X015080Y001111D01*
X014855Y000886D01*
X014561Y000764D01*
X014244Y000764D01*
X013950Y000886D01*
X013725Y001111D01*
X013604Y001404D01*
X013604Y001722D01*
X013725Y002016D01*
X013950Y002241D01*
X014244Y002362D01*
X014561Y002362D01*
X014877Y002219D02*
X015458Y002219D01*
X015458Y002120D02*
X014976Y002120D01*
X015074Y002022D02*
X015458Y002022D01*
X015458Y001923D02*
X015118Y001923D01*
X015159Y001825D02*
X015458Y001825D01*
X015458Y001726D02*
X015200Y001726D01*
X015202Y001628D02*
X015458Y001628D01*
X015458Y001529D02*
X015202Y001529D01*
X015202Y001431D02*
X015458Y001431D01*
X015458Y001332D02*
X015172Y001332D01*
X015131Y001234D02*
X015458Y001234D01*
X015458Y001135D02*
X015090Y001135D01*
X015006Y001037D02*
X015458Y001037D01*
X015458Y000938D02*
X014907Y000938D01*
X014743Y000840D02*
X015458Y000840D01*
X015458Y000741D02*
X008208Y000741D01*
X008208Y000643D02*
X015458Y000643D01*
X015458Y000544D02*
X008208Y000544D01*
X008208Y000446D02*
X015458Y000446D01*
X014062Y000840D02*
X008208Y000840D01*
X008208Y000938D02*
X013898Y000938D01*
X013800Y001037D02*
X008208Y001037D01*
X008208Y001135D02*
X013715Y001135D01*
X013674Y001234D02*
X008208Y001234D01*
X008208Y001332D02*
X013634Y001332D01*
X013604Y001431D02*
X008208Y001431D01*
X008208Y001529D02*
X013604Y001529D01*
X013604Y001628D02*
X008208Y001628D01*
X008208Y001726D02*
X013605Y001726D01*
X013646Y001825D02*
X008208Y001825D01*
X008208Y001923D02*
X013687Y001923D01*
X013731Y002022D02*
X008208Y002022D01*
X008208Y002120D02*
X013829Y002120D01*
X013928Y002219D02*
X008208Y002219D01*
X008208Y002317D02*
X014134Y002317D01*
X013167Y002416D02*
X008208Y002416D01*
X008208Y002514D02*
X013038Y002514D01*
X012978Y002613D02*
X008208Y002613D01*
X008208Y002711D02*
X012099Y002711D01*
X012000Y002810D02*
X008208Y002810D01*
X008208Y002908D02*
X011902Y002908D01*
X011803Y003007D02*
X008208Y003007D01*
X008208Y003105D02*
X011705Y003105D01*
X011606Y003204D02*
X010325Y003204D01*
X010332Y003214D02*
X010342Y003252D01*
X010342Y003386D01*
X009827Y003386D01*
X009827Y003122D01*
X010211Y003122D01*
X010250Y003132D01*
X010284Y003152D01*
X010312Y003180D01*
X010332Y003214D01*
X010342Y003302D02*
X011508Y003302D01*
X011409Y003401D02*
X009827Y003401D01*
X009799Y003401D02*
X008208Y003401D01*
X008208Y003499D02*
X009284Y003499D01*
X009301Y003598D02*
X008208Y003598D01*
X008208Y003696D02*
X009354Y003696D01*
X009324Y003795D02*
X008208Y003795D01*
X008208Y003893D02*
X009324Y003893D01*
X009324Y003992D02*
X008208Y003992D01*
X008208Y004090D02*
X009340Y004090D01*
X009362Y004189D02*
X008208Y004189D01*
X008208Y004287D02*
X009324Y004287D01*
X009324Y004386D02*
X008208Y004386D01*
X008208Y004484D02*
X009324Y004484D01*
X009333Y004583D02*
X008208Y004583D01*
X008208Y004681D02*
X009369Y004681D01*
X009324Y004780D02*
X008208Y004780D01*
X008208Y004878D02*
X009324Y004878D01*
X009324Y004977D02*
X008208Y004977D01*
X008208Y005075D02*
X009325Y005075D01*
X009377Y005174D02*
X008208Y005174D01*
X008208Y005272D02*
X009324Y005272D01*
X009324Y005371D02*
X008208Y005371D01*
X008208Y005469D02*
X009324Y005469D01*
X009324Y005568D02*
X008208Y005568D01*
X008208Y005666D02*
X009384Y005666D01*
X009324Y005765D02*
X008208Y005765D01*
X008208Y005863D02*
X009324Y005863D01*
X009324Y005962D02*
X008208Y005962D01*
X008208Y006060D02*
X009324Y006060D01*
X009335Y006159D02*
X008208Y006159D01*
X008208Y006257D02*
X009284Y006257D01*
X009284Y006356D02*
X008208Y006356D01*
X008208Y006454D02*
X009284Y006454D01*
X009285Y006553D02*
X008208Y006553D01*
X008208Y006651D02*
X009347Y006651D01*
X009324Y006750D02*
X008208Y006750D01*
X008208Y006848D02*
X009324Y006848D01*
X009324Y006947D02*
X008208Y006947D01*
X008208Y007045D02*
X009324Y007045D01*
X009788Y007144D02*
X008208Y007144D01*
X008208Y007242D02*
X009886Y007242D01*
X010302Y006960D02*
X010565Y006960D01*
X010597Y006928D01*
X011062Y006928D01*
X011077Y006912D01*
X011008Y006912D01*
X011008Y006556D01*
X010908Y006556D01*
X010908Y006456D01*
X011008Y006456D01*
X011008Y006350D01*
X011008Y005994D01*
X010908Y005994D01*
X010908Y006456D01*
X010493Y006456D01*
X010493Y006231D01*
X010494Y006225D01*
X010493Y006219D01*
X010493Y006090D01*
X010285Y006090D01*
X010244Y006131D01*
X010250Y006132D01*
X010284Y006152D01*
X010312Y006180D01*
X010332Y006214D01*
X010342Y006252D01*
X010342Y006386D01*
X009827Y006386D01*
X009827Y006414D01*
X010342Y006414D01*
X010342Y006548D01*
X010332Y006586D01*
X010312Y006620D01*
X010284Y006648D01*
X010250Y006668D01*
X010244Y006669D01*
X010302Y006726D01*
X010302Y006960D01*
X010302Y006947D02*
X010578Y006947D01*
X010585Y006902D02*
X010551Y006882D01*
X010523Y006854D01*
X010503Y006820D01*
X010493Y006782D01*
X010493Y006556D01*
X010908Y006556D01*
X010908Y006912D01*
X010623Y006912D01*
X010585Y006902D01*
X010519Y006848D02*
X010302Y006848D01*
X010302Y006750D02*
X010493Y006750D01*
X010493Y006651D02*
X010279Y006651D01*
X010340Y006553D02*
X010908Y006553D01*
X010908Y006651D02*
X011008Y006651D01*
X011008Y006750D02*
X010908Y006750D01*
X010908Y006848D02*
X011008Y006848D01*
X011383Y007045D02*
X013665Y007045D01*
X013625Y006947D02*
X011439Y006947D01*
X011538Y006848D02*
X013604Y006848D01*
X013604Y006750D02*
X011578Y006750D01*
X011578Y006651D02*
X013604Y006651D01*
X013614Y006553D02*
X011578Y006553D01*
X011578Y006454D02*
X013655Y006454D01*
X013696Y006356D02*
X011578Y006356D01*
X011578Y006257D02*
X013752Y006257D01*
X013851Y006159D02*
X011578Y006159D01*
X011578Y006060D02*
X013949Y006060D01*
X014186Y005962D02*
X013386Y005962D01*
X013380Y005962D02*
X013299Y005962D01*
X013293Y005962D02*
X011578Y005962D01*
X011578Y005863D02*
X013060Y005863D01*
X012973Y005765D02*
X011578Y005765D01*
X011578Y005666D02*
X012927Y005666D01*
X012908Y005469D02*
X011578Y005469D01*
X011578Y005371D02*
X012933Y005371D01*
X012987Y005272D02*
X011578Y005272D01*
X011578Y005174D02*
X013087Y005174D01*
X013115Y004878D02*
X011578Y004878D01*
X011578Y004780D02*
X013016Y004780D01*
X012968Y004681D02*
X012119Y004681D01*
X011802Y004450D02*
X012646Y004450D01*
X013340Y003756D01*
X012977Y003598D02*
X012119Y003598D01*
X012076Y003499D02*
X013038Y003499D01*
X013165Y003401D02*
X011805Y003401D01*
X012101Y003105D02*
X013113Y003105D01*
X013015Y003007D02*
X012199Y003007D01*
X012342Y003696D02*
X012944Y003696D01*
X012944Y003795D02*
X012440Y003795D01*
X012447Y003893D02*
X012968Y003893D01*
X012878Y003992D02*
X012447Y003992D01*
X012356Y004090D02*
X012780Y004090D01*
X012681Y004189D02*
X012116Y004189D01*
X012119Y004287D02*
X012583Y004287D01*
X012838Y004484D02*
X012944Y004484D01*
X012944Y004583D02*
X012740Y004583D01*
X012937Y004386D02*
X012977Y004386D01*
X013035Y004287D02*
X013037Y004287D01*
X013134Y004189D02*
X013164Y004189D01*
X012208Y003900D02*
X012108Y003800D01*
X011802Y003800D01*
X010839Y003499D02*
X010342Y003499D01*
X010325Y003598D02*
X010796Y003598D01*
X010796Y003696D02*
X010271Y003696D01*
X010285Y004090D02*
X010237Y004138D01*
X010256Y004681D02*
X010796Y004681D01*
X010606Y004780D02*
X011298Y004780D01*
X010268Y005174D02*
X010249Y005174D01*
X010648Y005522D02*
X010648Y005538D01*
X010908Y005538D01*
X010908Y005894D01*
X011008Y005894D01*
X011008Y005538D01*
X011292Y005538D01*
X011298Y005539D01*
X011298Y005522D01*
X010648Y005522D01*
X010908Y005568D02*
X011008Y005568D01*
X011008Y005666D02*
X010908Y005666D01*
X010908Y005765D02*
X011008Y005765D01*
X011008Y005863D02*
X010908Y005863D01*
X010908Y006060D02*
X011008Y006060D01*
X011008Y006159D02*
X010908Y006159D01*
X010908Y006257D02*
X011008Y006257D01*
X011008Y006356D02*
X010908Y006356D01*
X010908Y006454D02*
X011008Y006454D01*
X010493Y006454D02*
X010342Y006454D01*
X010342Y006356D02*
X010493Y006356D01*
X010493Y006257D02*
X010342Y006257D01*
X010290Y006159D02*
X010493Y006159D01*
X010268Y005666D02*
X010241Y005666D01*
X011578Y005568D02*
X013299Y005568D01*
X013299Y005666D02*
X013380Y005666D01*
X013380Y005765D02*
X013299Y005765D01*
X013299Y005863D02*
X013380Y005863D01*
X013706Y007144D02*
X011383Y007144D01*
X011383Y007242D02*
X013778Y007242D01*
X013877Y007341D02*
X011383Y007341D01*
X011383Y007439D02*
X014010Y007439D01*
X010768Y007735D02*
X008208Y007735D01*
X008208Y007833D02*
X010768Y007833D01*
X010768Y007932D02*
X008208Y007932D01*
X008208Y008030D02*
X010768Y008030D01*
X010768Y008129D02*
X008208Y008129D01*
X008208Y007636D02*
X010574Y007636D01*
X010533Y007538D02*
X008208Y007538D01*
X008208Y007439D02*
X010533Y007439D01*
X010533Y007341D02*
X008208Y007341D01*
X007708Y007341D02*
X004133Y007341D01*
X004133Y007340D02*
X004133Y007345D01*
X004068Y007410D01*
X003347Y007410D01*
X003283Y007345D01*
X003283Y007340D01*
X003093Y007340D01*
X003053Y007380D01*
X002862Y007380D01*
X002728Y007245D01*
X002728Y007055D01*
X002862Y006920D01*
X003053Y006920D01*
X003093Y006960D01*
X003283Y006960D01*
X003283Y006742D01*
X003347Y006678D01*
X004068Y006678D01*
X004133Y006742D01*
X004133Y006960D01*
X005129Y006960D01*
X005379Y006710D01*
X005630Y006710D01*
X005671Y006669D01*
X005666Y006668D01*
X005632Y006648D01*
X005604Y006620D01*
X005584Y006586D01*
X005574Y006548D01*
X005574Y006414D01*
X006089Y006414D01*
X006089Y006386D01*
X005574Y006386D01*
X005574Y006252D01*
X005584Y006214D01*
X005604Y006180D01*
X005632Y006152D01*
X005666Y006132D01*
X005671Y006131D01*
X005630Y006090D01*
X005100Y006090D01*
X005068Y006122D01*
X004347Y006122D01*
X004283Y006058D01*
X004283Y005455D01*
X004347Y005390D01*
X005018Y005390D01*
X005018Y005009D01*
X004966Y005061D01*
X004450Y005061D01*
X004428Y005040D01*
X003054Y005040D01*
X002868Y004947D01*
X002806Y004864D01*
X002796Y004854D01*
X002771Y004842D01*
X002758Y004840D01*
X002637Y004840D01*
X002637Y004981D01*
X002647Y004991D01*
X002666Y005025D01*
X002677Y005063D01*
X002677Y005162D01*
X002677Y005260D01*
X002666Y005298D01*
X002647Y005333D01*
X002619Y005361D01*
X002598Y005373D01*
X002637Y005412D01*
X002637Y006329D01*
X002572Y006394D01*
X001694Y006394D01*
X001692Y006392D01*
X001692Y006625D01*
X001627Y006689D01*
X000788Y006689D01*
X000724Y006625D01*
X000724Y006176D01*
X000708Y006176D01*
X000708Y007650D01*
X007708Y007650D01*
X007708Y000400D01*
X000708Y000400D01*
X000708Y003124D01*
X000724Y003124D01*
X000724Y002675D01*
X000788Y002611D01*
X001627Y002611D01*
X001692Y002675D01*
X001692Y002908D01*
X001692Y002908D01*
X001694Y002906D01*
X002572Y002906D01*
X002637Y002971D01*
X002637Y003888D01*
X002577Y003948D01*
X002617Y003948D01*
X002728Y003838D01*
X002728Y003805D01*
X002862Y003670D01*
X003053Y003670D01*
X003188Y003805D01*
X003188Y003995D01*
X003053Y004130D01*
X002973Y004130D01*
X002899Y004204D01*
X003046Y004204D01*
X003046Y004142D01*
X003111Y004077D01*
X003615Y004077D01*
X003680Y004142D01*
X003680Y004658D01*
X003678Y004660D01*
X003737Y004660D01*
X003735Y004658D01*
X003735Y004142D01*
X003800Y004077D01*
X004304Y004077D01*
X004369Y004142D01*
X004369Y004240D01*
X004385Y004240D01*
X004385Y003803D01*
X004450Y003739D01*
X004756Y003739D01*
X004784Y003710D01*
X005630Y003710D01*
X005671Y003669D01*
X005666Y003668D01*
X005632Y003648D01*
X005604Y003620D01*
X005584Y003586D01*
X005574Y003548D01*
X005574Y003414D01*
X006089Y003414D01*
X006089Y003386D01*
X006117Y003386D01*
X006117Y003414D01*
X006631Y003414D01*
X006631Y003548D01*
X006621Y003586D01*
X006602Y003620D01*
X006574Y003648D01*
X006539Y003668D01*
X006534Y003669D01*
X006591Y003726D01*
X006591Y004074D01*
X006527Y004138D01*
X005678Y004138D01*
X005630Y004090D01*
X005030Y004090D01*
X005630Y004090D01*
X005678Y004162D02*
X006527Y004162D01*
X006591Y004226D01*
X006591Y004574D01*
X006527Y004638D01*
X005678Y004638D01*
X005614Y004574D01*
X005614Y004560D01*
X005030Y004560D01*
X005030Y004809D01*
X005129Y004710D01*
X005630Y004710D01*
X005678Y004662D01*
X006527Y004662D01*
X006591Y004726D01*
X006591Y005074D01*
X006527Y005138D01*
X005678Y005138D01*
X005630Y005090D01*
X005398Y005090D01*
X005398Y005210D01*
X005630Y005210D01*
X005678Y005162D01*
X006527Y005162D01*
X006591Y005226D01*
X006591Y005574D01*
X006527Y005638D01*
X005678Y005638D01*
X005630Y005590D01*
X005398Y005590D01*
X005398Y005710D01*
X005630Y005710D01*
X005678Y005662D01*
X006527Y005662D01*
X006591Y005726D01*
X006591Y006074D01*
X006534Y006131D01*
X006539Y006132D01*
X006574Y006152D01*
X006602Y006180D01*
X006621Y006214D01*
X006631Y006252D01*
X006631Y006386D01*
X006117Y006386D01*
X006117Y006414D01*
X006631Y006414D01*
X006631Y006548D01*
X006621Y006586D01*
X006602Y006620D01*
X006574Y006648D01*
X006539Y006668D01*
X006534Y006669D01*
X006591Y006726D01*
X006591Y007074D01*
X006527Y007138D01*
X005678Y007138D01*
X005630Y007090D01*
X005536Y007090D01*
X005398Y007229D01*
X005286Y007340D01*
X004133Y007340D01*
X004133Y006947D02*
X004361Y006947D01*
X004373Y006950D02*
X004335Y006939D01*
X004301Y006920D01*
X004273Y006892D01*
X004253Y006858D01*
X004243Y006819D01*
X004243Y006594D01*
X004658Y006594D01*
X004658Y006950D01*
X004373Y006950D01*
X004250Y006848D02*
X004133Y006848D01*
X004133Y006750D02*
X004243Y006750D01*
X004243Y006651D02*
X004082Y006651D01*
X004081Y006652D02*
X004042Y006662D01*
X003758Y006662D01*
X003758Y006306D01*
X004173Y006306D01*
X004173Y006532D01*
X004162Y006570D01*
X004143Y006604D01*
X004115Y006632D01*
X004081Y006652D01*
X004167Y006553D02*
X004658Y006553D01*
X004658Y006594D02*
X004658Y006494D01*
X004758Y006494D01*
X004758Y006594D01*
X004658Y006594D01*
X004658Y006651D02*
X004758Y006651D01*
X004758Y006594D02*
X004758Y006950D01*
X005042Y006950D01*
X005081Y006939D01*
X005115Y006920D01*
X005143Y006892D01*
X005162Y006858D01*
X005173Y006819D01*
X005173Y006594D01*
X004758Y006594D01*
X004758Y006553D02*
X005575Y006553D01*
X005574Y006454D02*
X005173Y006454D01*
X005173Y006494D02*
X005173Y006268D01*
X005162Y006230D01*
X005143Y006196D01*
X005115Y006168D01*
X005081Y006148D01*
X005042Y006138D01*
X004758Y006138D01*
X004758Y006494D01*
X005173Y006494D01*
X005173Y006356D02*
X005574Y006356D01*
X005574Y006257D02*
X005170Y006257D01*
X005099Y006159D02*
X005625Y006159D01*
X005637Y006651D02*
X005173Y006651D01*
X005173Y006750D02*
X005339Y006750D01*
X005241Y006848D02*
X005165Y006848D01*
X005142Y006947D02*
X005054Y006947D01*
X004758Y006947D02*
X004658Y006947D01*
X004658Y006848D02*
X004758Y006848D01*
X004758Y006750D02*
X004658Y006750D01*
X004658Y006494D02*
X004243Y006494D01*
X004243Y006268D01*
X004253Y006230D01*
X004273Y006196D01*
X004301Y006168D01*
X004335Y006148D01*
X004373Y006138D01*
X004658Y006138D01*
X004658Y006494D01*
X004658Y006454D02*
X004758Y006454D01*
X004758Y006356D02*
X004658Y006356D01*
X004658Y006257D02*
X004758Y006257D01*
X004758Y006159D02*
X004658Y006159D01*
X004317Y006159D02*
X004173Y006159D01*
X004173Y006206D02*
X004173Y005981D01*
X004162Y005942D01*
X004143Y005908D01*
X004115Y005880D01*
X004081Y005861D01*
X004042Y005850D01*
X003758Y005850D01*
X003758Y006206D01*
X003758Y006306D01*
X003658Y006306D01*
X003658Y006206D01*
X003758Y006206D01*
X004173Y006206D01*
X004246Y006257D02*
X003758Y006257D01*
X003758Y006159D02*
X003658Y006159D01*
X003658Y006206D02*
X003658Y005850D01*
X003373Y005850D01*
X003335Y005861D01*
X003301Y005880D01*
X003273Y005908D01*
X003253Y005942D01*
X003243Y005981D01*
X003243Y006206D01*
X003658Y006206D01*
X003658Y006257D02*
X002637Y006257D01*
X002637Y006159D02*
X003243Y006159D01*
X003243Y006060D02*
X002637Y006060D01*
X002637Y005962D02*
X003248Y005962D01*
X003331Y005863D02*
X002637Y005863D01*
X002637Y005765D02*
X004283Y005765D01*
X004283Y005863D02*
X004085Y005863D01*
X004168Y005962D02*
X004283Y005962D01*
X004285Y006060D02*
X004173Y006060D01*
X004173Y006356D02*
X004243Y006356D01*
X004243Y006454D02*
X004173Y006454D01*
X003758Y006454D02*
X003658Y006454D01*
X003658Y006356D02*
X003758Y006356D01*
X003658Y006306D02*
X003658Y006662D01*
X003373Y006662D01*
X003335Y006652D01*
X003301Y006632D01*
X003273Y006604D01*
X003253Y006570D01*
X003243Y006532D01*
X003243Y006306D01*
X003658Y006306D01*
X003658Y006060D02*
X003758Y006060D01*
X003758Y005962D02*
X003658Y005962D01*
X003658Y005863D02*
X003758Y005863D01*
X004283Y005666D02*
X002637Y005666D01*
X002637Y005568D02*
X004283Y005568D01*
X004283Y005469D02*
X002637Y005469D01*
X002601Y005371D02*
X005018Y005371D01*
X005018Y005272D02*
X002673Y005272D01*
X002677Y005174D02*
X005018Y005174D01*
X005018Y005075D02*
X002677Y005075D01*
X002677Y005162D02*
X002261Y005162D01*
X002677Y005162D01*
X002637Y004977D02*
X002927Y004977D01*
X002868Y004947D02*
X002868Y004947D01*
X002816Y004878D02*
X002637Y004878D01*
X002806Y004864D02*
X002806Y004864D01*
X002261Y005162D02*
X002261Y005162D01*
X002914Y004189D02*
X003046Y004189D01*
X003093Y004090D02*
X003098Y004090D01*
X003188Y003992D02*
X004385Y003992D01*
X004385Y004090D02*
X004317Y004090D01*
X004369Y004189D02*
X004385Y004189D01*
X004385Y003893D02*
X003188Y003893D01*
X003177Y003795D02*
X004394Y003795D01*
X005030Y004090D02*
X005030Y004240D01*
X005614Y004240D01*
X005614Y004226D01*
X005678Y004162D01*
X005652Y004189D02*
X005030Y004189D01*
X005030Y004583D02*
X005623Y004583D01*
X005659Y004681D02*
X005030Y004681D01*
X005030Y004780D02*
X005059Y004780D01*
X005398Y005174D02*
X005667Y005174D01*
X005674Y005666D02*
X005398Y005666D01*
X006531Y005666D02*
X007708Y005666D01*
X007708Y005568D02*
X006591Y005568D01*
X006591Y005469D02*
X007708Y005469D01*
X007708Y005371D02*
X006591Y005371D01*
X006591Y005272D02*
X007708Y005272D01*
X007708Y005174D02*
X006539Y005174D01*
X006590Y005075D02*
X007708Y005075D01*
X007708Y004977D02*
X006591Y004977D01*
X006591Y004878D02*
X007708Y004878D01*
X007708Y004780D02*
X006591Y004780D01*
X006546Y004681D02*
X007708Y004681D01*
X007708Y004583D02*
X006583Y004583D01*
X006591Y004484D02*
X007708Y004484D01*
X007708Y004386D02*
X006591Y004386D01*
X006591Y004287D02*
X007708Y004287D01*
X007708Y004189D02*
X006554Y004189D01*
X006575Y004090D02*
X007708Y004090D01*
X007708Y003992D02*
X006591Y003992D01*
X006591Y003893D02*
X007708Y003893D01*
X007708Y003795D02*
X006591Y003795D01*
X006561Y003696D02*
X007708Y003696D01*
X007708Y003598D02*
X006615Y003598D01*
X006631Y003499D02*
X007708Y003499D01*
X007708Y003401D02*
X006117Y003401D01*
X006117Y003386D02*
X006631Y003386D01*
X006631Y003252D01*
X006621Y003214D01*
X006602Y003180D01*
X006574Y003152D01*
X006539Y003132D01*
X006501Y003122D01*
X006117Y003122D01*
X006117Y003386D01*
X006089Y003386D02*
X006089Y003122D01*
X005704Y003122D01*
X005666Y003132D01*
X005632Y003152D01*
X005604Y003180D01*
X005584Y003214D01*
X005574Y003252D01*
X005574Y003386D01*
X006089Y003386D01*
X006089Y003401D02*
X002637Y003401D01*
X002637Y003499D02*
X005574Y003499D01*
X005591Y003598D02*
X002637Y003598D01*
X002637Y003696D02*
X002836Y003696D01*
X002738Y003795D02*
X002637Y003795D01*
X002632Y003893D02*
X002672Y003893D01*
X003079Y003696D02*
X005644Y003696D01*
X005574Y003302D02*
X002637Y003302D01*
X002637Y003204D02*
X005590Y003204D01*
X006089Y003204D02*
X006117Y003204D01*
X006117Y003302D02*
X006089Y003302D01*
X006615Y003204D02*
X007708Y003204D01*
X007708Y003302D02*
X006631Y003302D01*
X007708Y003105D02*
X002637Y003105D01*
X002637Y003007D02*
X007708Y003007D01*
X007708Y002908D02*
X002574Y002908D01*
X001692Y002810D02*
X007708Y002810D01*
X007708Y002711D02*
X001692Y002711D01*
X001629Y002613D02*
X007708Y002613D01*
X007708Y002514D02*
X000708Y002514D01*
X000708Y002416D02*
X007708Y002416D01*
X007708Y002317D02*
X000708Y002317D01*
X000708Y002219D02*
X007708Y002219D01*
X007708Y002120D02*
X000708Y002120D01*
X000708Y002022D02*
X007708Y002022D01*
X007708Y001923D02*
X000708Y001923D01*
X000708Y001825D02*
X007708Y001825D01*
X007708Y001726D02*
X000708Y001726D01*
X000708Y001628D02*
X007708Y001628D01*
X007708Y001529D02*
X000708Y001529D01*
X000708Y001431D02*
X007708Y001431D01*
X007708Y001332D02*
X000708Y001332D01*
X000708Y001234D02*
X007708Y001234D01*
X007708Y001135D02*
X000708Y001135D01*
X000708Y001037D02*
X007708Y001037D01*
X007708Y000938D02*
X000708Y000938D01*
X000708Y000840D02*
X007708Y000840D01*
X007708Y000741D02*
X000708Y000741D01*
X000708Y000643D02*
X007708Y000643D01*
X007708Y000544D02*
X000708Y000544D01*
X000708Y000446D02*
X007708Y000446D01*
X009342Y003152D02*
X009376Y003132D01*
X009414Y003122D01*
X009799Y003122D01*
X009799Y003386D01*
X009284Y003386D01*
X009284Y003252D01*
X009294Y003214D01*
X009314Y003180D01*
X009342Y003152D01*
X009300Y003204D02*
X008208Y003204D01*
X008208Y003302D02*
X009284Y003302D01*
X009799Y003302D02*
X009827Y003302D01*
X009827Y003204D02*
X009799Y003204D01*
X007708Y005765D02*
X006591Y005765D01*
X006591Y005863D02*
X007708Y005863D01*
X007708Y005962D02*
X006591Y005962D01*
X006591Y006060D02*
X007708Y006060D01*
X007708Y006159D02*
X006580Y006159D01*
X006631Y006257D02*
X007708Y006257D01*
X007708Y006356D02*
X006631Y006356D01*
X006631Y006454D02*
X007708Y006454D01*
X007708Y006553D02*
X006630Y006553D01*
X006568Y006651D02*
X007708Y006651D01*
X007708Y006750D02*
X006591Y006750D01*
X006591Y006848D02*
X007708Y006848D01*
X007708Y006947D02*
X006591Y006947D01*
X006591Y007045D02*
X007708Y007045D01*
X007708Y007144D02*
X005483Y007144D01*
X005384Y007242D02*
X007708Y007242D01*
X007708Y007439D02*
X000708Y007439D01*
X000708Y007341D02*
X002823Y007341D01*
X002728Y007242D02*
X000708Y007242D01*
X000708Y007144D02*
X002728Y007144D01*
X002737Y007045D02*
X000708Y007045D01*
X000708Y006947D02*
X002836Y006947D01*
X003079Y006947D02*
X003283Y006947D01*
X003283Y006848D02*
X000708Y006848D01*
X000708Y006750D02*
X003283Y006750D01*
X003333Y006651D02*
X001665Y006651D01*
X001692Y006553D02*
X003248Y006553D01*
X003243Y006454D02*
X001692Y006454D01*
X002610Y006356D02*
X003243Y006356D01*
X003658Y006553D02*
X003758Y006553D01*
X003758Y006651D02*
X003658Y006651D01*
X003283Y007341D02*
X003092Y007341D01*
X003661Y008227D02*
X000708Y008227D01*
X000708Y008326D02*
X003595Y008326D01*
X003595Y008424D02*
X000708Y008424D01*
X000708Y008523D02*
X003595Y008523D01*
X003595Y008621D02*
X000708Y008621D01*
X000708Y008720D02*
X004482Y008720D01*
X004482Y008818D02*
X004582Y008818D01*
X004582Y008720D02*
X010768Y008720D01*
X010768Y008818D02*
X005470Y008818D01*
X005470Y008917D02*
X008488Y008917D01*
X008449Y009015D02*
X006028Y009015D01*
X006241Y009114D02*
X008449Y009114D01*
X008449Y009212D02*
X006340Y009212D01*
X006438Y009311D02*
X008449Y009311D01*
X008449Y009409D02*
X006502Y009409D01*
X006543Y009508D02*
X008449Y009508D01*
X008449Y009606D02*
X006583Y009606D01*
X006614Y009705D02*
X008449Y009705D01*
X008449Y009803D02*
X006614Y009803D01*
X005470Y008621D02*
X010768Y008621D01*
X010768Y008523D02*
X005470Y008523D01*
X005470Y008424D02*
X010768Y008424D01*
X010768Y008326D02*
X005470Y008326D01*
X005404Y008227D02*
X010768Y008227D01*
X010768Y008917D02*
X010217Y008917D01*
X010349Y009015D02*
X010623Y009015D01*
X010526Y009114D02*
X010427Y009114D01*
X010473Y009212D02*
X010485Y009212D01*
X010468Y009606D02*
X010492Y009606D01*
X010543Y009705D02*
X010415Y009705D01*
X010331Y009803D02*
X010641Y009803D01*
X010661Y009902D02*
X010182Y009902D01*
X010008Y009902D02*
X009908Y009902D01*
X009908Y009803D02*
X010008Y009803D01*
X010008Y009705D02*
X009908Y009705D01*
X009908Y009606D02*
X010008Y009606D01*
X010008Y009508D02*
X009908Y009508D01*
X009908Y009311D02*
X010008Y009311D01*
X010008Y009212D02*
X009908Y009212D01*
X009908Y009114D02*
X010008Y009114D01*
X010008Y009015D02*
X009908Y009015D01*
X009908Y008917D02*
X010008Y008917D01*
X009698Y008917D02*
X009427Y008917D01*
X009466Y009015D02*
X009567Y009015D01*
X009488Y009114D02*
X009466Y009114D01*
X009466Y009705D02*
X009501Y009705D01*
X009466Y009803D02*
X009585Y009803D01*
X009734Y009902D02*
X009409Y009902D01*
X006551Y011773D02*
X013529Y011773D01*
X013529Y011872D02*
X006510Y011872D01*
X006458Y011970D02*
X013529Y011970D01*
X013529Y012069D02*
X006359Y012069D01*
X006261Y012167D02*
X014474Y012167D01*
X014474Y012266D02*
X006075Y012266D01*
X005352Y012266D02*
X003412Y012266D01*
X003413Y012265D02*
X003318Y012311D01*
X003218Y012346D01*
X003115Y012369D01*
X003010Y012381D01*
X003008Y012381D01*
X003008Y010700D01*
X003898Y010700D01*
X003898Y011493D01*
X003886Y011598D01*
X003863Y011701D01*
X003828Y011801D01*
X003782Y011896D01*
X003726Y011986D01*
X003660Y012068D01*
X003585Y012143D01*
X003503Y012209D01*
X003413Y012265D01*
X003555Y012167D02*
X005166Y012167D01*
X005068Y012069D02*
X003660Y012069D01*
X003736Y011970D02*
X004969Y011970D01*
X004917Y011872D02*
X003794Y011872D01*
X003838Y011773D02*
X004877Y011773D01*
X004836Y011675D02*
X003869Y011675D01*
X003889Y011576D02*
X004813Y011576D01*
X004813Y011478D02*
X003898Y011478D01*
X003898Y011379D02*
X004813Y011379D01*
X004813Y011281D02*
X003898Y011281D01*
X003898Y011182D02*
X004813Y011182D01*
X004813Y011084D02*
X003898Y011084D01*
X003898Y010985D02*
X004813Y010985D01*
X004813Y010887D02*
X003898Y010887D01*
X003898Y010788D02*
X004813Y010788D01*
X004813Y010690D02*
X003008Y010690D01*
X003008Y010700D02*
X003008Y010600D01*
X003898Y010600D01*
X003898Y009807D01*
X003886Y009702D01*
X003863Y009599D01*
X003828Y009499D01*
X003782Y009404D01*
X003726Y009314D01*
X003660Y009232D01*
X003585Y009157D01*
X003503Y009091D01*
X003413Y009035D01*
X003318Y008989D01*
X003218Y008954D01*
X003115Y008931D01*
X003010Y008919D01*
X003008Y008919D01*
X003008Y010600D01*
X002908Y010600D01*
X002908Y008919D01*
X002905Y008919D01*
X002800Y008931D01*
X002697Y008954D01*
X002597Y008989D01*
X002502Y009035D01*
X002413Y009091D01*
X002330Y009157D01*
X002255Y009232D01*
X002189Y009314D01*
X002133Y009404D01*
X002087Y009499D01*
X002052Y009599D01*
X002029Y009702D01*
X002017Y009807D01*
X002017Y010600D01*
X002908Y010600D01*
X002908Y010700D01*
X002908Y012381D01*
X002905Y012381D01*
X002800Y012369D01*
X002697Y012346D01*
X002597Y012311D01*
X002502Y012265D01*
X002413Y012209D01*
X002330Y012143D01*
X002255Y012068D01*
X002189Y011986D01*
X002133Y011896D01*
X002087Y011801D01*
X002052Y011701D01*
X002029Y011598D01*
X002017Y011493D01*
X002017Y010700D01*
X002908Y010700D01*
X003008Y010700D01*
X003008Y010788D02*
X002908Y010788D01*
X002908Y010690D02*
X000708Y010690D01*
X000708Y010788D02*
X002017Y010788D01*
X002017Y010887D02*
X000708Y010887D01*
X000708Y010985D02*
X002017Y010985D01*
X002017Y011084D02*
X000708Y011084D01*
X000708Y011182D02*
X002017Y011182D01*
X002017Y011281D02*
X000708Y011281D01*
X000708Y011379D02*
X002017Y011379D01*
X002017Y011478D02*
X000708Y011478D01*
X000708Y011576D02*
X002026Y011576D01*
X002046Y011675D02*
X000708Y011675D01*
X000708Y011773D02*
X002078Y011773D01*
X002121Y011872D02*
X000708Y011872D01*
X000708Y011970D02*
X002180Y011970D01*
X002256Y012069D02*
X000708Y012069D01*
X000708Y012167D02*
X002360Y012167D01*
X002503Y012266D02*
X000708Y012266D01*
X000708Y012364D02*
X002777Y012364D01*
X002908Y012364D02*
X003008Y012364D01*
X003008Y012266D02*
X002908Y012266D01*
X002908Y012167D02*
X003008Y012167D01*
X003008Y012069D02*
X002908Y012069D01*
X002908Y011970D02*
X003008Y011970D01*
X003008Y011872D02*
X002908Y011872D01*
X002908Y011773D02*
X003008Y011773D01*
X003008Y011675D02*
X002908Y011675D01*
X002908Y011576D02*
X003008Y011576D01*
X003008Y011478D02*
X002908Y011478D01*
X002908Y011379D02*
X003008Y011379D01*
X003008Y011281D02*
X002908Y011281D01*
X002908Y011182D02*
X003008Y011182D01*
X003008Y011084D02*
X002908Y011084D01*
X002908Y010985D02*
X003008Y010985D01*
X003008Y010887D02*
X002908Y010887D01*
X002908Y010591D02*
X003008Y010591D01*
X003008Y010493D02*
X002908Y010493D01*
X002908Y010394D02*
X003008Y010394D01*
X003008Y010296D02*
X002908Y010296D01*
X002908Y010197D02*
X003008Y010197D01*
X003008Y010099D02*
X002908Y010099D01*
X002908Y010000D02*
X003008Y010000D01*
X003008Y009902D02*
X002908Y009902D01*
X002908Y009803D02*
X003008Y009803D01*
X003008Y009705D02*
X002908Y009705D01*
X002908Y009606D02*
X003008Y009606D01*
X003008Y009508D02*
X002908Y009508D01*
X002908Y009409D02*
X003008Y009409D01*
X003008Y009311D02*
X002908Y009311D01*
X002908Y009212D02*
X003008Y009212D01*
X003008Y009114D02*
X002908Y009114D01*
X002908Y009015D02*
X003008Y009015D01*
X003372Y009015D02*
X003595Y009015D01*
X003595Y008917D02*
X000708Y008917D01*
X000708Y009015D02*
X002543Y009015D01*
X002385Y009114D02*
X000708Y009114D01*
X000708Y009212D02*
X002275Y009212D01*
X002192Y009311D02*
X000708Y009311D01*
X000708Y009409D02*
X002131Y009409D01*
X002084Y009508D02*
X000708Y009508D01*
X000708Y009606D02*
X002051Y009606D01*
X002029Y009705D02*
X000708Y009705D01*
X000708Y009803D02*
X002018Y009803D01*
X002017Y009902D02*
X000708Y009902D01*
X000708Y010000D02*
X002017Y010000D01*
X002017Y010099D02*
X000708Y010099D01*
X000708Y010197D02*
X002017Y010197D01*
X002017Y010296D02*
X000708Y010296D01*
X000708Y010394D02*
X002017Y010394D01*
X002017Y010493D02*
X000708Y010493D01*
X000708Y010591D02*
X002017Y010591D01*
X003785Y009409D02*
X003934Y009409D01*
X003836Y009311D02*
X003723Y009311D01*
X003737Y009212D02*
X003640Y009212D01*
X003639Y009114D02*
X003531Y009114D01*
X003595Y008818D02*
X000708Y008818D01*
X000708Y007636D02*
X007708Y007636D01*
X007708Y007538D02*
X000708Y007538D01*
X000708Y006651D02*
X000750Y006651D01*
X000724Y006553D02*
X000708Y006553D01*
X000708Y006454D02*
X000724Y006454D01*
X000724Y006356D02*
X000708Y006356D01*
X000708Y006257D02*
X000724Y006257D01*
X003680Y004583D02*
X003735Y004583D01*
X003735Y004484D02*
X003680Y004484D01*
X003680Y004386D02*
X003735Y004386D01*
X003735Y004287D02*
X003680Y004287D01*
X003680Y004189D02*
X003735Y004189D01*
X003787Y004090D02*
X003628Y004090D01*
X004052Y004400D02*
X006103Y004400D01*
X000786Y002613D02*
X000708Y002613D01*
X000708Y002711D02*
X000724Y002711D01*
X000724Y002810D02*
X000708Y002810D01*
X000708Y002908D02*
X000724Y002908D01*
X000724Y003007D02*
X000708Y003007D01*
X000708Y003105D02*
X000724Y003105D01*
X004482Y008917D02*
X004582Y008917D01*
X004582Y009015D02*
X004482Y009015D01*
X004482Y009114D02*
X004582Y009114D01*
X004582Y009212D02*
X004482Y009212D01*
X004482Y009311D02*
X004582Y009311D01*
X004582Y009409D02*
X004482Y009409D01*
X004482Y009508D02*
X004582Y009508D01*
X004582Y009606D02*
X004482Y009606D01*
X004813Y009705D02*
X003887Y009705D01*
X003898Y009803D02*
X004813Y009803D01*
X004813Y009902D02*
X003898Y009902D01*
X003898Y010000D02*
X004813Y010000D01*
X004813Y010099D02*
X003898Y010099D01*
X003898Y010197D02*
X004813Y010197D01*
X004813Y010296D02*
X003898Y010296D01*
X003898Y010394D02*
X004813Y010394D01*
X004813Y010493D02*
X003898Y010493D01*
X003898Y010591D02*
X004813Y010591D01*
X004131Y009606D02*
X003865Y009606D01*
X003831Y009508D02*
X004033Y009508D01*
X003138Y012364D02*
X014474Y012364D01*
X015442Y012364D02*
X015458Y012364D01*
X015458Y012266D02*
X015442Y012266D01*
X015442Y012167D02*
X015458Y012167D01*
X015458Y012069D02*
X015442Y012069D01*
X015442Y011970D02*
X015458Y011970D01*
X015458Y012463D02*
X000708Y012463D01*
X000708Y012561D02*
X015458Y012561D01*
X015458Y012660D02*
X000708Y012660D01*
X000708Y012758D02*
X015458Y012758D01*
X015458Y012857D02*
X000708Y012857D01*
X013905Y009888D02*
X013905Y009888D01*
D27*
X003708Y005650D03*
X002958Y007150D03*
X002958Y003900D03*
X003708Y003400D03*
D28*
X012208Y003900D03*
D29*
X011438Y003570D02*
X011438Y006750D01*
X010958Y007230D01*
X010958Y007294D01*
X011438Y003570D02*
X012218Y002790D01*
X013298Y002790D01*
X013340Y002772D01*
M02*
